<svg width="32" height="32" viewBox="0 0 21 32" fill="none" xmlns="http://www.w3.org/2000/svg">
<g clip-path="url(#clip0_404_780)">
<path d="M9.94736 14.1967C12.4586 14.1967 14.4945 12.3656 14.4945 10.1069C14.4945 7.84812 12.4586 6.01703 9.94736 6.01703C7.43607 6.01703 5.40027 7.84812 5.40027 10.1069C5.40027 12.3656 7.43607 14.1967 9.94736 14.1967Z" fill="url(#paint0_linear_404_780)"/>
<path d="M10.8033 32L14.8019 24.777L11.3144 23.4166L9.33795 27.4803" fill="url(#paint1_linear_404_780)"/>
<path d="M12.0429 28.7099L10.8033 32L1.51801 15.6132H4.62327L12.0429 28.7099Z" fill="url(#paint2_linear_404_780)"/>
<path d="M0 5.93857C1.15288 3.54103 3.31744 1.65363 6.0175 0.691554C8.71756 -0.27052 11.7319 -0.228453 14.3975 0.808501C17.0631 1.84545 19.1615 3.79235 20.2311 6.2209C21.3008 8.64944 21.254 11.3607 20.1011 13.7582L14.5042 25.3999L11.0152 24.042L16.6122 12.4004C17.3652 10.8351 17.3961 9.06488 16.698 7.47914C16 5.8934 14.6301 4.62203 12.8899 3.94472C11.1496 3.2674 9.18151 3.23962 7.41849 3.86749C5.65547 4.49537 4.24196 5.72745 3.48892 7.29271L0 5.93857Z" fill="url(#paint3_linear_404_780)"/>
<path d="M10.59 8.68049L10.5138 8.64187C10.1177 8.43507 10.0526 8.33292 10.0152 8.22454V8.21706C10.0152 8.19261 10.0044 8.16917 9.98521 8.15188C9.96598 8.13459 9.93992 8.12488 9.91273 8.12488C9.88555 8.12488 9.85948 8.13459 9.84026 8.15188C9.82104 8.16917 9.81024 8.19261 9.81024 8.21706V11.1608V11.1758C9.69333 11.1224 9.56467 11.0932 9.43362 11.0901C9.30257 11.0871 9.17241 11.1104 9.05262 11.1583C8.66897 11.2991 8.46121 11.6031 8.58725 11.8385C8.71329 12.074 9.13157 12.1524 9.51661 12.0129C9.8421 11.8946 10.0402 11.6579 10.0152 11.4461V9.87393V8.54221C10.1349 8.63417 10.2649 8.71474 10.403 8.78264L10.4806 8.82251C10.8809 9.02557 11.2576 9.2523 11.1025 9.58741C11.098 9.59801 11.096 9.60934 11.0967 9.62067C11.0974 9.632 11.1007 9.64308 11.1064 9.65318C11.1122 9.66328 11.1202 9.67218 11.13 9.67931C11.1399 9.68643 11.1512 9.69163 11.1634 9.69454C11.189 9.70459 11.2179 9.70511 11.2438 9.696C11.2698 9.6869 11.2907 9.6689 11.3019 9.64596C11.5222 9.15388 10.9155 8.84618 10.59 8.68049Z" fill="white"/>
</g>
<defs>
<linearGradient id="paint0_linear_404_780" x1="5.40027" y1="10.1069" x2="14.4958" y2="10.1069" gradientUnits="userSpaceOnUse">
<stop stop-color="#E94E1B"/>
<stop offset="1" stop-color="#BE1622"/>
</linearGradient>
<linearGradient id="paint1_linear_404_780" x1="9.33795" y1="27.7083" x2="14.8019" y2="27.7083" gradientUnits="userSpaceOnUse">
<stop stop-color="#E94E1B"/>
<stop offset="1" stop-color="#BE1622"/>
</linearGradient>
<linearGradient id="paint2_linear_404_780" x1="1.51801" y1="23.8066" x2="12.0443" y2="23.8066" gradientUnits="userSpaceOnUse">
<stop stop-color="#E94E1B"/>
<stop offset="1" stop-color="#BE1622"/>
</linearGradient>
<linearGradient id="paint3_linear_404_780" x1="0" y1="12.6993" x2="21.0014" y2="12.6993" gradientUnits="userSpaceOnUse">
<stop stop-color="#E94E1B"/>
<stop offset="1" stop-color="#BE1622"/>
</linearGradient>
<clipPath id="clip0_404_780">
<rect width="21" height="32" fill="white"/>
</clipPath>
</defs>
</svg>
