<svg width="25" height="29" viewBox="0 0 25 29" fill="none" xmlns="http://www.w3.org/2000/svg">
<path d="M20.5459 15.3101C20.5322 12.979 21.5884 11.2222 23.7212 9.92676C22.5283 8.21777 20.7236 7.27783 18.3447 7.09668C16.0923 6.91895 13.6279 8.40918 12.7256 8.40918C11.772 8.40918 9.59131 7.1582 7.87549 7.1582C4.33447 7.21289 0.571289 9.98144 0.571289 15.6143C0.571289 17.2788 0.875488 18.998 1.48389 20.7686C2.29736 23.0996 5.22998 28.811 8.28906 28.7188C9.88867 28.6812 11.02 27.584 13.1016 27.584C15.1216 27.584 16.1675 28.7188 17.9517 28.7188C21.0381 28.6743 23.6904 23.4824 24.4629 21.1445C20.3237 19.1929 20.5459 15.4297 20.5459 15.3101ZM16.9536 4.88525C18.6865 2.82764 18.5293 0.95459 18.478 0.28125C16.9468 0.370117 15.1763 1.32373 14.168 2.49609C13.0571 3.75391 12.4043 5.30908 12.5444 7.0625C14.1987 7.18896 15.7095 6.33789 16.9536 4.88525Z" fill="white"/>
</svg>
