<svg width="34" height="45" viewBox="0 0 34 45" fill="none" xmlns="http://www.w3.org/2000/svg">
<path d="M19.0984 43.875C23.6406 38.2324 34 24.5566 34 16.875C34 7.55859 26.3854 0 17 0C7.61458 0 0 7.55859 0 16.875C0 24.5566 10.3594 38.2324 14.9016 43.875C15.9906 45.2197 18.0094 45.2197 19.0984 43.875ZM17 22.5C13.8745 22.5 11.3333 19.9775 11.3333 16.875C11.3333 13.7725 13.8745 11.25 17 11.25C20.1255 11.25 22.6667 13.7725 22.6667 16.875C22.6667 19.9775 20.1255 22.5 17 22.5Z" fill="#FF5555"/>
</svg>
