<svg width="23" height="25" viewBox="0 0 23 25" fill="none" xmlns="http://www.w3.org/2000/svg">
<g clip-path="url(#clip0_276_822)">
<path d="M16.9637 16.3207C19.88 14.6946 22.0908 13.4554 22.2813 13.3591C22.8909 13.0299 23.5205 12.1585 22.2813 11.4817C21.8813 11.2688 19.7273 10.0683 16.9637 8.52002L13.1326 12.4493L16.9637 16.3207V16.3207Z" fill="#FFD900"/>
<path d="M13.1326 12.4492L0.933838 24.9349C1.22017 24.9734 1.54343 24.8963 1.92454 24.6835C2.72469 24.2387 11.207 19.5344 16.9637 16.3216L13.1326 12.4492Z" fill="#F43249"/>
<path d="M13.1326 12.4493L16.9637 8.53931C16.9637 8.53931 2.78256 0.679733 1.92455 0.215773C1.60129 0.0213384 1.23904 -0.036417 0.914886 0.0213384L13.1326 12.4493Z" fill="#00EE76"/>
<path d="M13.1326 12.4492L0.914879 0.0212402C0.419031 0.137664 0 0.582554 0 1.49241V23.4637C0 24.2964 0.324246 24.8962 0.933836 24.9541L13.1326 12.4492Z" fill="#00D3FF"/>
</g>
<defs>
<clipPath id="clip0_276_822">
<rect width="23" height="25" fill="white"/>
</clipPath>
</defs>
</svg>
