<svg xmlns="http://www.w3.org/2000/svg" xmlns:xlink="http://www.w3.org/1999/xlink" viewBox="0 0 151.62 256.87"><defs><style>.cls-1{fill:url(#linear-gradient);}.cls-2{fill:url(#linear-gradient-2);}.cls-3{fill:url(#linear-gradient-3);}.cls-4{fill:url(#linear-gradient-4);}.cls-5{fill:#fff;}</style><linearGradient id="linear-gradient" x1="38.99" y1="81.13" x2="104.66" y2="81.13" gradientUnits="userSpaceOnUse"><stop offset="0" stop-color="#e94e1b"/><stop offset="1" stop-color="#be1622"/></linearGradient><linearGradient id="linear-gradient-2" x1="67.42" y1="222.42" x2="106.87" y2="222.42" xlink:href="#linear-gradient"/><linearGradient id="linear-gradient-3" x1="10.96" y1="191.1" x2="86.96" y2="191.1" xlink:href="#linear-gradient"/><linearGradient id="linear-gradient-4" x1="100.35" y1="428.56" x2="251.98" y2="428.56" xlink:href="#linear-gradient"/></defs><g id="Layer_2" data-name="Layer 2"><circle class="cls-1" cx="71.82" cy="81.13" r="32.83"/><polyline class="cls-2" points="78 256.87 106.87 198.89 81.69 187.97 67.42 220.59"/></g><g id="Layer_1" data-name="Layer 1"><polygon class="cls-3" points="86.95 230.46 78 256.87 10.96 125.33 33.38 125.33 86.95 230.46"/><path class="cls-4" d="M100.35,374.29a79.06,79.06,0,0,1,145.13,62.77l-40.41,93.45-25.19-10.9,40.41-93.45a51.62,51.62,0,0,0-94.75-41Z" transform="translate(-100.35 -326.62)"/><path class="cls-5" d="M176.81,396.3l-.55-.31c-2.86-1.66-3.33-2.48-3.6-3.35v-.06a.74.74,0,0,0-1.48,0v23.63h0v.12a6.37,6.37,0,0,0-5.47-.14c-2.77,1.13-4.27,3.57-3.36,5.46s3.93,2.52,6.71,1.4c2.35-.95,3.78-2.85,3.6-4.55V405.88h0V395.19a16.48,16.48,0,0,0,2.8,1.93l.56.32c2.89,1.63,5.61,3.45,4.49,6.14a.65.65,0,0,0,.44.86.76.76,0,0,0,1-.39C183.54,400.1,179.16,397.63,176.81,396.3Z" transform="translate(-100.35 -326.62)"/></g></svg>