<svg width="18" height="23" viewBox="0 0 18 23" fill="none" xmlns="http://www.w3.org/2000/svg">
<path d="M8.99991 11.896C10.7502 11.896 12.1691 10.4771 12.1691 8.72683C12.1691 6.97656 10.7502 5.55768 8.99991 5.55768C7.24963 5.55768 5.83075 6.97656 5.83075 8.72683C5.83075 10.4771 7.24963 11.896 8.99991 11.896Z" stroke="#FF5555" stroke-width="1.5" stroke-linecap="round" stroke-linejoin="round"/>
<path d="M16.9229 8.72678C16.9229 15.8574 8.99998 21.4034 8.99998 21.4034C8.99998 21.4034 1.07709 15.8574 1.07709 8.72678C1.07709 6.6255 1.91182 4.61028 3.39765 3.12445C4.88348 1.63862 6.8987 0.803894 8.99998 0.803894C11.1013 0.803894 13.1165 1.63862 14.6023 3.12445C16.0881 4.61028 16.9229 6.6255 16.9229 8.72678V8.72678Z" stroke="#FF5555" stroke-width="1.5" stroke-linecap="round" stroke-linejoin="round"/>
</svg>
