<svg xmlns="http://www.w3.org/2000/svg" xmlns:xlink="http://www.w3.org/1999/xlink" viewBox="0 0 826.63 307.68"><defs><style>.cls-1{fill:url(#linear-gradient);}.cls-2{fill:url(#linear-gradient-2);}.cls-3{fill:url(#linear-gradient-3);}.cls-4{fill:url(#linear-gradient-4);}.cls-5{fill:url(#linear-gradient-5);}.cls-6{fill:url(#linear-gradient-6);}.cls-7{fill:url(#linear-gradient-7);}.cls-8{fill:url(#linear-gradient-8);}.cls-9{fill:url(#linear-gradient-9);}.cls-10{fill:url(#linear-gradient-10);}.cls-11{fill:url(#linear-gradient-11);}.cls-12{fill:url(#linear-gradient-12);}.cls-13{fill:url(#linear-gradient-13);}.cls-14{font-size:25.73px;fill:#e94e1b;font-family:Montserrat-Bold, Montserrat;font-weight:700;letter-spacing:0.81em;}.cls-15{letter-spacing:0.8em;}.cls-16{letter-spacing:0.78em;}.cls-17{letter-spacing:0.79em;}.cls-18{letter-spacing:0.8em;}.cls-19{fill:url(#linear-gradient-14);}.cls-20{fill:#fff;}</style><linearGradient id="linear-gradient" x1="38.99" y1="81.13" x2="104.66" y2="81.13" gradientUnits="userSpaceOnUse"><stop offset="0" stop-color="#e94e1b"/><stop offset="1" stop-color="#be1622"/></linearGradient><linearGradient id="linear-gradient-2" x1="67.42" y1="222.42" x2="106.87" y2="222.42" xlink:href="#linear-gradient"/><linearGradient id="linear-gradient-3" x1="10.96" y1="191.1" x2="86.96" y2="191.1" xlink:href="#linear-gradient"/><linearGradient id="linear-gradient-4" x1="169.8" y1="129.5" x2="242.88" y2="129.5" xlink:href="#linear-gradient"/><linearGradient id="linear-gradient-5" x1="169.8" y1="185.28" x2="242.88" y2="185.28" xlink:href="#linear-gradient"/><linearGradient id="linear-gradient-6" x1="169.8" y1="241.07" x2="242.88" y2="241.07" xlink:href="#linear-gradient"/><linearGradient id="linear-gradient-7" x1="273.4" y1="185.28" x2="385.24" y2="185.28" xlink:href="#linear-gradient"/><linearGradient id="linear-gradient-8" x1="476.23" y1="185.28" x2="551.99" y2="185.28" xlink:href="#linear-gradient"/><linearGradient id="linear-gradient-9" x1="419.59" y1="185.28" x2="495.36" y2="185.28" xlink:href="#linear-gradient"/><linearGradient id="linear-gradient-10" x1="682.02" y1="511.94" x2="797.02" y2="511.94" xlink:href="#linear-gradient"/><linearGradient id="linear-gradient-11" x1="100.35" y1="428.56" x2="251.98" y2="428.56" xlink:href="#linear-gradient"/><linearGradient id="linear-gradient-12" x1="813.36" y1="482.84" x2="889.12" y2="482.84" xlink:href="#linear-gradient"/><linearGradient id="linear-gradient-13" x1="851.25" y1="538.63" x2="926.99" y2="538.63" xlink:href="#linear-gradient"/><linearGradient id="linear-gradient-14" x1="273.4" y1="159.05" x2="278.36" y2="159.05" xlink:href="#linear-gradient"/></defs><g id="Layer_2" data-name="Layer 2"><circle class="cls-1" cx="71.82" cy="81.13" r="32.83"/><polyline class="cls-2" points="78 256.87 106.87 198.89 81.69 187.97 67.42 220.59"/></g><g id="Layer_1" data-name="Layer 1"><polygon class="cls-3" points="86.95 230.46 78 256.87 10.96 125.33 33.38 125.33 86.95 230.46"/><polygon class="cls-4" points="242.88 139.47 185.87 139.47 169.8 119.52 242.88 119.52 242.88 139.47"/><rect class="cls-5" x="169.8" y="175.3" width="73.08" height="19.96"/><polygon class="cls-6" points="242.88 251.05 169.8 251.05 185.87 231.09 242.88 231.09 242.88 251.05"/><polygon class="cls-7" points="385.24 119.53 385.24 251.04 385.18 251.04 365.28 232.48 273.4 146.82 273.4 119.53 273.43 119.53 365.28 205.19 365.28 119.53 385.24 119.53"/><polygon class="cls-8" points="551.99 119.52 551.99 139.47 496.19 139.47 496.19 251.05 476.23 251.05 476.23 119.52 551.99 119.52"/><polygon class="cls-9" points="419.59 119.52 419.59 139.47 475.39 139.47 475.39 251.05 495.36 251.05 495.36 119.52 419.59 119.52"/><path class="cls-10" d="M797,520.22a57.5,57.5,0,0,1-115,0V446.17h20v74.05a37.54,37.54,0,0,0,75.08,0Z" transform="translate(-100.35 -326.62)"/><path class="cls-11" d="M100.35,374.29a79.06,79.06,0,0,1,145.13,62.77l-40.41,93.45-25.19-10.9,40.41-93.45a51.62,51.62,0,0,0-94.75-41Z" transform="translate(-100.35 -326.62)"/><path class="cls-12" d="M851.25,520.72a37.88,37.88,0,1,1,0-75.76h1.68v20h-1.68a17.92,17.92,0,1,0,0,35.84h37.87" transform="translate(-100.35 -326.62)"/><path class="cls-13" d="M889.12,500.76a37.87,37.87,0,0,1,0,75.74h-2v-20h2a17.91,17.91,0,0,0,0-35.82H851.25" transform="translate(-100.35 -326.62)"/><text class="cls-14" transform="translate(87.86 300.83)">A<tspan class="cls-15" x="40.42" y="0">P</tspan><tspan x="79.71" y="0">R</tspan><tspan class="cls-16" x="119.33" y="0">O</tspan><tspan class="cls-17" x="161.17" y="0">V</tspan><tspan x="200.69" y="0">EITE O MOMEN</tspan><tspan class="cls-18" x="653.29" y="0">T</tspan><tspan x="689.65" y="0">O</tspan></text><polyline class="cls-19" points="273.4 139.82 273.4 178.28 278.36 166.71 278.36 144.44"/><path class="cls-20" d="M176.81,396.3l-.55-.31c-2.86-1.66-3.33-2.48-3.6-3.35v-.06a.74.74,0,0,0-1.48,0v23.63h0v.12a6.37,6.37,0,0,0-5.47-.14c-2.77,1.13-4.27,3.57-3.36,5.46s3.93,2.52,6.71,1.4c2.35-.95,3.78-2.85,3.6-4.55V405.88h0V395.19a16.48,16.48,0,0,0,2.8,1.93l.56.32c2.89,1.63,5.61,3.45,4.49,6.14a.65.65,0,0,0,.44.86.76.76,0,0,0,1-.39C183.54,400.1,179.16,397.63,176.81,396.3Z" transform="translate(-100.35 -326.62)"/></g></svg>