<svg width="21" height="21" viewBox="0 0 21 21" fill="none" xmlns="http://www.w3.org/2000/svg">
<path d="M8.17321 14.8221C8.05774 14.7036 8 14.5632 8 14.4009C8 14.2391 8.05774 14.0988 8.17321 13.9802L11.5566 10.5059L8.16166 7.01976C8.05389 6.90909 8 6.77075 8 6.60474C8 6.43874 8.05774 6.29644 8.17321 6.17787C8.28868 6.05929 8.4254 6 8.58337 6C8.74103 6 8.8776 6.05929 8.99307 6.17787L12.873 10.1739C12.9192 10.2213 12.952 10.2727 12.9714 10.3281C12.9905 10.3834 13 10.4427 13 10.5059C13 10.5692 12.9905 10.6285 12.9714 10.6838C12.952 10.7391 12.9192 10.7905 12.873 10.8379L8.98152 14.834C8.87375 14.9447 8.74103 15 8.58337 15C8.4254 15 8.28868 14.9407 8.17321 14.8221Z" fill="#939598"/>
</svg>
