<svg width="26" height="27" viewBox="0 0 26 27" fill="none" xmlns="http://www.w3.org/2000/svg">
<path d="M13 18.7812C15.2437 18.7812 17.0625 16.9624 17.0625 14.7188C17.0625 12.4751 15.2437 10.6562 13 10.6562C10.7563 10.6562 8.9375 12.4751 8.9375 14.7188C8.9375 16.9624 10.7563 18.7812 13 18.7812Z" stroke="#FF5555" stroke-width="1.5" stroke-linecap="round" stroke-linejoin="round"/>
<path d="M19.9062 12.2813C20.8526 12.2797 21.7861 12.4992 22.6325 12.9224C23.4789 13.3456 24.2147 13.9608 24.7812 14.7188" stroke="#FF5555" stroke-width="1.5" stroke-linecap="round" stroke-linejoin="round"/>
<path d="M1.21875 14.7188C1.78527 13.9608 2.52107 13.3456 3.36747 12.9224C4.21387 12.4992 5.14745 12.2797 6.09375 12.2813" stroke="#FF5555" stroke-width="1.5" stroke-linecap="round" stroke-linejoin="round"/>
<path d="M7.15002 22.4375C7.68508 21.3417 8.51714 20.4182 9.55141 19.7723C10.5857 19.1263 11.7806 18.7838 13 18.7838C14.2194 18.7838 15.4144 19.1263 16.4486 19.7723C17.4829 20.4182 18.315 21.3417 18.85 22.4375" stroke="#FF5555" stroke-width="1.5" stroke-linecap="round" stroke-linejoin="round"/>
<path d="M6.09375 12.2812C5.47691 12.2819 4.87262 12.1069 4.3515 11.7769C3.83038 11.4468 3.41395 10.9753 3.15086 10.4174C2.88778 9.85943 2.78891 9.23814 2.86581 8.62611C2.9427 8.01407 3.19219 7.43656 3.58511 6.96104C3.97804 6.48553 4.49817 6.13166 5.08474 5.94078C5.67131 5.74989 6.30009 5.72988 6.89761 5.88308C7.49513 6.03627 8.03672 6.35636 8.45909 6.80592C8.88145 7.25548 9.16716 7.81597 9.28282 8.42187" stroke="#FF5555" stroke-width="1.5" stroke-linecap="round" stroke-linejoin="round"/>
<path d="M16.7172 8.42187C16.8328 7.81597 17.1185 7.25548 17.5409 6.80592C17.9633 6.35636 18.5048 6.03627 19.1024 5.88308C19.6999 5.72988 20.3287 5.74989 20.9152 5.94078C21.5018 6.13166 22.0219 6.48553 22.4149 6.96104C22.8078 7.43656 23.0573 8.01407 23.1342 8.62611C23.2111 9.23814 23.1122 9.85943 22.8491 10.4174C22.586 10.9753 22.1696 11.4468 21.6485 11.7769C21.1274 12.1069 20.5231 12.2819 19.9062 12.2812" stroke="#FF5555" stroke-width="1.5" stroke-linecap="round" stroke-linejoin="round"/>
</svg>
