<svg width="848" height="394" viewBox="0 0 848 394" fill="none" xmlns="http://www.w3.org/2000/svg">
<g clip-path="url(#clip0_1611_5206)">
<path d="M53.7118 329.057L51.0667 340.48C50.8674 341.353 50.6591 342.242 50.4326 343.123C48.2218 342.729 45.9296 342.839 43.7836 343.443C45.4862 345.537 47.012 347.734 48.3491 350.016C46.6824 354.437 44.2366 358.523 40.1421 361.478C37.4074 363.408 34.1413 364.699 30.6585 365.226C27.1758 365.753 23.594 365.499 20.2586 364.488L20.3763 364.036C15.9739 356.683 18.3653 347.412 23.8367 340.62C26.6273 337.27 29.9337 334.261 33.6652 331.677C37.3611 329.025 41.3559 326.647 45.3145 324.3C46.2036 323.774 47.2548 323.488 48.3338 323.478C49.4128 323.469 50.4705 323.736 51.3719 324.247C52.2733 324.757 52.9774 325.488 53.3942 326.345C53.811 327.201 53.9216 328.145 53.7118 329.057Z" fill="#E4E4E4"/>
<path d="M21.2032 391.974C20.0899 384.993 18.9449 377.923 19.7257 370.867C20.4196 364.601 22.6399 358.481 27.1619 353.462C29.562 350.804 32.4825 348.526 35.792 346.731C36.6553 346.263 37.4488 347.44 36.59 347.906C30.8639 351.021 26.4349 355.621 23.9416 361.042C21.1878 367.071 20.7457 373.644 21.224 380.048C21.5112 383.921 22.119 387.767 22.7323 391.611C22.7816 391.785 22.7519 391.969 22.6492 392.124C22.5465 392.28 22.3785 392.396 22.1797 392.449C21.9774 392.496 21.7618 392.472 21.5797 392.383C21.3975 392.294 21.2635 392.147 21.2068 391.973L21.2032 391.974Z" fill="#F2F2F2"/>
<path d="M30.7575 41.8206C69.5619 41.2398 108.37 41.1564 147.183 41.5703C185.99 41.9867 224.784 42.9027 263.565 44.3182C285.327 45.1126 307.08 46.0643 328.824 47.1732C330.571 47.2622 330.565 44.9227 328.824 44.834C290.082 42.8606 251.311 41.384 212.512 40.4042C173.718 39.4271 134.914 38.9495 96.0976 38.9716C74.3164 38.9841 52.5363 39.154 30.7575 39.4814C29.0107 39.5075 29.0052 41.8468 30.7575 41.8206V41.8206Z" fill="#E6E6E6"/>
<path d="M301.184 27.153L318.152 26.066C319.886 25.9549 319.9 23.6148 318.152 23.7268L301.184 24.8138C299.451 24.9249 299.437 27.265 301.184 27.153Z" fill="#E6E6E6"/>
<path d="M301.184 41.1884L318.152 40.1013C319.886 39.9903 319.9 37.6502 318.152 37.7621L301.184 38.8492C299.451 38.9602 299.437 41.3003 301.184 41.1884Z" fill="#E6E6E6"/>
<path d="M299.911 34.7788L324.036 36.6653C325.777 36.8015 325.766 34.4614 324.036 34.3261L299.911 32.4395C298.17 32.3034 298.181 34.6434 299.911 34.7788Z" fill="#E6E6E6"/>
<path d="M40.7979 24.0071C39.6179 24.0009 38.4619 24.2937 37.474 24.8491C36.486 25.4045 35.7098 26.1979 35.2422 27.1304C34.719 28.0431 34.5575 29.0782 34.7824 30.0774C35.0072 31.0765 35.6061 31.9848 36.4874 32.6633C37.3158 33.27 38.3095 33.686 39.3755 33.8724C40.4414 34.0589 41.5449 34.0096 42.5827 33.7292C43.6441 33.4101 44.5644 32.8157 45.2171 32.0278C45.8698 31.2398 46.2227 30.2971 46.2273 29.3294C46.2747 28.2558 45.9368 27.1956 45.2595 26.2931C44.5823 25.3906 43.5986 24.6896 42.4421 24.2853C42.0947 24.204 41.724 24.2443 41.4109 24.3973C41.0978 24.5503 40.8676 24.8037 40.7706 25.1022C40.6849 25.401 40.7356 25.7167 40.9121 25.9843C41.0887 26.252 41.3777 26.4512 41.7197 26.5409C41.9565 26.6197 41.5033 26.4407 41.7245 26.5444C41.8154 26.5871 41.908 26.6256 41.9973 26.6711C42.0732 26.7098 42.1458 26.7521 42.2197 26.7936C42.4733 26.9361 42.0958 26.689 42.258 26.8171C42.3986 26.9282 42.5379 27.0366 42.6656 27.1592C42.714 27.2055 42.9033 27.3344 42.7562 27.2443C42.6436 27.1754 42.7128 27.1916 42.7561 27.247C42.789 27.2889 42.8239 27.3298 42.8564 27.3721C42.9623 27.5101 43.0586 27.6533 43.1448 27.8012C43.1647 27.8354 43.183 27.8704 43.2033 27.9045C43.2413 27.9682 43.2965 27.9849 43.207 27.905C43.1216 27.8287 43.176 27.8339 43.2066 27.9074C43.2267 27.9557 43.2486 28.0034 43.2682 28.0518C43.3319 28.2096 43.3854 28.3703 43.4284 28.5332C43.4483 28.6084 43.4643 28.6842 43.4814 28.7599C43.5421 29.0285 43.4726 28.5929 43.4873 28.7925C43.4995 28.9591 43.5138 29.1238 43.5104 29.2911C43.5089 29.3676 43.505 29.4441 43.4988 29.5204C43.4957 29.5585 43.4908 29.5965 43.4878 29.6346C43.4738 29.8181 43.4733 29.5675 43.5031 29.5504C43.441 29.7062 43.3998 29.8676 43.3803 30.0314C43.356 30.1042 43.3271 30.1753 43.3 30.2472C43.2055 30.4982 43.3888 30.1104 43.288 30.2819C43.2051 30.4293 43.1124 30.5724 43.0104 30.7106C42.9661 30.7685 42.7992 30.8992 42.9357 30.8082C43.0839 30.7095 42.8581 30.8795 42.8099 30.9232C42.748 30.9794 42.6838 31.0336 42.6172 31.0859C42.5745 31.1217 42.5296 31.1554 42.4824 31.1867C42.4738 31.183 42.7094 31.0513 42.5824 31.121C42.421 31.2096 42.2681 31.3045 42.0979 31.3816C42.0781 31.3906 41.8606 31.4774 41.8615 31.4804C41.8521 31.4489 42.1411 31.3928 41.9427 31.448C41.9011 31.4596 41.8602 31.4736 41.8187 31.4856C41.6381 31.538 41.4537 31.5803 41.2667 31.6122C41.2239 31.6195 41.1787 31.6233 41.1365 31.6327C40.996 31.6639 41.2707 31.6143 41.279 31.6184C41.1751 31.6146 41.0712 31.6225 40.9698 31.642C40.777 31.6515 40.5837 31.6515 40.3909 31.6419C40.3463 31.6397 40.3018 31.6359 40.2572 31.6337C40.1537 31.6285 40.0777 31.5643 40.2155 31.634C40.3218 31.6878 40.3129 31.6485 40.2187 31.6336C40.1747 31.6265 40.1304 31.6206 40.0864 31.6135C39.8956 31.5828 39.7069 31.543 39.5212 31.4943C39.4212 31.4681 39.3233 31.4376 39.2247 31.408C39.1817 31.3973 39.1399 31.3834 39.0997 31.3666C39.0991 31.3569 39.3538 31.4713 39.2193 31.4089C39.0496 31.3302 38.8741 31.2642 38.7083 31.1781C38.6199 31.1322 38.535 31.0823 38.449 31.0331C38.4111 31.0135 38.3752 30.9913 38.3414 30.9668C38.3443 30.9569 38.5521 31.1227 38.443 31.0332C38.305 30.92 38.1574 30.8187 38.0268 30.6982C37.9969 30.6707 37.9686 30.6418 37.9388 30.6142L37.91 30.5858C37.8364 30.5083 37.835 30.5087 37.9059 30.5869C37.9779 30.6052 37.9746 30.6732 37.9063 30.5849C37.882 30.5534 37.8561 30.5228 37.8318 30.4913C37.7214 30.3559 37.6273 30.2113 37.5509 30.0596C37.5575 30.0551 37.6686 30.341 37.5837 30.1253C37.5676 30.0845 37.5496 30.0444 37.5339 30.0036C37.5026 29.9225 37.4752 29.8406 37.4514 29.7578C37.4279 29.6757 37.4159 29.591 37.3922 29.5093C37.3523 29.3716 37.4155 29.618 37.4083 29.6119C37.3857 29.5926 37.3953 29.4731 37.3936 29.4446C37.3827 29.261 37.407 29.0829 37.4108 28.9005C37.4138 28.7592 37.3972 29.0106 37.3938 29.0032C37.3946 28.9609 37.4033 28.919 37.4196 28.879C37.4442 28.7828 37.4671 28.6867 37.4972 28.5915C37.5317 28.4826 37.5714 28.375 37.6163 28.2687C37.6331 28.229 37.6535 28.1898 37.6691 28.1497C37.7263 28.0028 37.5559 28.3271 37.6499 28.1946C37.7791 28.0124 37.8754 27.8152 38.0127 27.6353C38.0452 27.5926 38.2429 27.355 38.138 27.475C38.0335 27.5945 38.2454 27.368 38.2855 27.3295C38.4522 27.1698 38.6482 27.0386 38.8208 26.8856C38.9229 26.7951 38.7495 26.9302 38.7392 26.9365C38.7927 26.9037 38.845 26.8695 38.8991 26.8375C38.9935 26.7815 39.0901 26.7286 39.1891 26.6787C39.3005 26.6224 39.4266 26.5806 39.5346 26.521C39.6623 26.4507 39.437 26.5519 39.433 26.554C39.4913 26.5291 39.5522 26.5091 39.615 26.4943C39.7202 26.4622 40.1778 26.2922 40.2738 26.3454C40.2695 26.343 39.9263 26.3691 40.2037 26.3538C40.2693 26.3502 40.3345 26.3447 40.4002 26.3423C40.533 26.3376 40.6653 26.3405 40.798 26.3464C41.1576 26.3444 41.5018 26.2205 41.7562 26.0016C42.0105 25.7827 42.1544 25.4864 42.1567 25.1768C42.149 24.8687 42.0034 24.575 41.7502 24.3571C41.4971 24.1391 41.1559 24.0138 40.798 24.0072L40.7979 24.0071Z" fill="#E6E6E6"/>
<path d="M59.8214 24.0071C58.6414 24.0009 57.4854 24.2937 56.4974 24.8491C55.5095 25.4045 54.7333 26.1979 54.2656 27.1304C53.7424 28.0431 53.5809 29.0782 53.8058 30.0774C54.0307 31.0765 54.6295 31.9848 55.5108 32.6633C56.3393 33.27 57.3329 33.686 58.3989 33.8724C59.4648 34.0589 60.5683 34.0096 61.6061 33.7292C62.6675 33.4101 63.5879 32.8157 64.2406 32.0278C64.8933 31.2398 65.2462 30.2971 65.2507 29.3294C65.2981 28.2558 64.9602 27.1956 64.283 26.2931C63.6057 25.3906 62.622 24.6896 61.4656 24.2853C61.1181 24.204 60.7474 24.2443 60.4343 24.3973C60.1212 24.5503 59.8911 24.8037 59.7941 25.1022C59.7084 25.401 59.759 25.7167 59.9356 25.9843C60.1121 26.252 60.4011 26.4512 60.7431 26.5409C60.9799 26.6197 60.5268 26.4407 60.7479 26.5444C60.8388 26.5871 60.9314 26.6256 61.0207 26.6711C61.0966 26.7098 61.1693 26.7521 61.2431 26.7936C61.4967 26.9361 61.1193 26.689 61.2814 26.8171C61.422 26.9282 61.5613 27.0366 61.6891 27.1592C61.7374 27.2055 61.9267 27.3344 61.7796 27.2443C61.667 27.1754 61.7362 27.1916 61.7796 27.247C61.8125 27.2889 61.8473 27.3298 61.8798 27.3721C61.9857 27.5101 62.082 27.6533 62.1682 27.8012C62.1882 27.8354 62.2064 27.8704 62.2267 27.9045C62.2648 27.9682 62.3199 27.9849 62.2305 27.905C62.145 27.8287 62.1994 27.8339 62.23 27.9074C62.2501 27.9557 62.2721 28.0034 62.2916 28.0518C62.3553 28.2096 62.4088 28.3703 62.4518 28.5332C62.4717 28.6084 62.4878 28.6842 62.5049 28.7599C62.5656 29.0285 62.496 28.5929 62.5107 28.7925C62.5229 28.9591 62.5372 29.1238 62.5338 29.2911C62.5323 29.3676 62.5284 29.4441 62.5223 29.5204C62.5191 29.5585 62.5142 29.5965 62.5113 29.6346C62.4972 29.8181 62.4967 29.5675 62.5266 29.5504C62.4645 29.7062 62.4233 29.8676 62.4038 30.0314C62.3794 30.1042 62.3505 30.1753 62.3234 30.2472C62.2289 30.4982 62.4122 30.1104 62.3115 30.2819C62.2285 30.4293 62.1358 30.5724 62.0339 30.7106C61.9896 30.7685 61.8226 30.8992 61.9592 30.8082C62.1073 30.7095 61.8815 30.8795 61.8333 30.9232C61.7714 30.9794 61.7072 31.0336 61.6406 31.0859C61.598 31.1217 61.553 31.1554 61.5058 31.1867C61.4972 31.183 61.7329 31.0513 61.6058 31.121C61.4444 31.2096 61.2915 31.3045 61.1214 31.3816C61.1016 31.3906 60.884 31.4774 60.8849 31.4804C60.8755 31.4489 61.1646 31.3928 60.9662 31.448C60.9245 31.4596 60.8836 31.4736 60.8421 31.4856C60.6615 31.538 60.4771 31.5803 60.2902 31.6122C60.2474 31.6195 60.2021 31.6233 60.1599 31.6327C60.0195 31.6639 60.2942 31.6143 60.3024 31.6184C60.1986 31.6146 60.0946 31.6225 59.9932 31.642C59.8004 31.6515 59.6071 31.6515 59.4143 31.6419C59.3697 31.6397 59.3252 31.6359 59.2806 31.6337C59.1771 31.6285 59.1011 31.5643 59.2389 31.634C59.3452 31.6878 59.3364 31.6485 59.2422 31.6336C59.1981 31.6265 59.1539 31.6206 59.1099 31.6135C58.919 31.5828 58.7303 31.543 58.5446 31.4943C58.4447 31.4681 58.3467 31.4376 58.2481 31.408C58.2052 31.3973 58.1634 31.3834 58.1231 31.3666C58.1225 31.3569 58.3772 31.4713 58.2428 31.4089C58.073 31.3302 57.8975 31.2642 57.7318 31.1781C57.6433 31.1322 57.5584 31.0823 57.4724 31.0331C57.4346 31.0135 57.3986 30.9913 57.3649 30.9668C57.3677 30.9569 57.5755 31.1227 57.4664 31.0332C57.3285 30.92 57.1809 30.8187 57.0502 30.6982C57.0203 30.6707 56.9921 30.6418 56.9623 30.6142L56.9334 30.5858C56.8598 30.5083 56.8584 30.5087 56.9293 30.5869C57.0014 30.6052 56.9981 30.6732 56.9297 30.5849C56.9054 30.5534 56.8795 30.5228 56.8552 30.4913C56.7449 30.3559 56.6508 30.2113 56.5744 30.0596C56.581 30.0551 56.6921 30.341 56.6071 30.1253C56.5911 30.0845 56.573 30.0444 56.5573 30.0036C56.5261 29.9225 56.4986 29.8406 56.4749 29.7578C56.4514 29.6757 56.4393 29.591 56.4156 29.5093C56.3757 29.3716 56.439 29.618 56.4317 29.6119C56.4091 29.5926 56.4187 29.4731 56.417 29.4446C56.4062 29.261 56.4305 29.0829 56.4342 28.9005C56.4372 28.7592 56.4207 29.0106 56.4172 29.0032C56.4181 28.9609 56.4268 28.919 56.443 28.879C56.4676 28.7828 56.4905 28.6867 56.5206 28.5915C56.5551 28.4826 56.5948 28.375 56.6397 28.2687C56.6565 28.229 56.677 28.1898 56.6926 28.1497C56.7497 28.0028 56.5793 28.3271 56.6733 28.1946C56.8026 28.0124 56.8989 27.8152 57.0361 27.6353C57.0686 27.5926 57.2664 27.355 57.1614 27.475C57.0569 27.5945 57.2688 27.368 57.309 27.3295C57.4756 27.1698 57.6716 27.0386 57.8442 26.8856C57.9463 26.7951 57.7729 26.9302 57.7627 26.9365C57.8161 26.9037 57.8685 26.8695 57.9226 26.8375C58.0169 26.7815 58.1135 26.7286 58.2125 26.6787C58.324 26.6224 58.45 26.5806 58.5581 26.521C58.6857 26.4507 58.4604 26.5519 58.4564 26.554C58.5147 26.5291 58.5757 26.5091 58.6384 26.4943C58.7437 26.4622 59.2013 26.2922 59.2973 26.3454C59.2929 26.343 58.9498 26.3691 59.2272 26.3538C59.2927 26.3502 59.358 26.3447 59.4236 26.3423C59.5564 26.3376 59.6887 26.3405 59.8214 26.3464C60.181 26.3444 60.5253 26.2205 60.7796 26.0016C61.0339 25.7827 61.1778 25.4864 61.1802 25.1768C61.1725 24.8687 61.0269 24.575 60.7737 24.3571C60.5205 24.1391 60.1794 24.0138 59.8214 24.0072L59.8214 24.0071Z" fill="#E6E6E6"/>
<path d="M78.8448 24.0071C77.6648 24.0009 76.5088 24.2937 75.5209 24.8491C74.5329 25.4045 73.7567 26.1979 73.289 27.1304C72.7659 28.0431 72.6044 29.0782 72.8292 30.0774C73.0541 31.0765 73.653 31.9848 74.5343 32.6633C75.3627 33.27 76.3564 33.686 77.4223 33.8724C78.4883 34.0589 79.5917 34.0096 80.6296 33.7292C81.6909 33.4101 82.6113 32.8157 83.264 32.0278C83.9167 31.2398 84.2696 30.2971 84.2741 29.3294C84.3215 28.2558 83.9837 27.1956 83.3064 26.2931C82.6292 25.3906 81.6454 24.6896 80.489 24.2853C80.1415 24.204 79.7709 24.2443 79.4578 24.3973C79.1447 24.5503 78.9145 24.8037 78.8175 25.1022C78.7318 25.401 78.7824 25.7167 78.959 25.9843C79.1355 26.252 79.4246 26.4512 79.7666 26.5409C80.0034 26.6197 79.5502 26.4407 79.7713 26.5444C79.8622 26.5871 79.9549 26.6256 80.0441 26.6711C80.12 26.7098 80.1927 26.7521 80.2665 26.7936C80.5202 26.9361 80.1427 26.689 80.3048 26.8171C80.4454 26.9282 80.5847 27.0366 80.7125 27.1592C80.7608 27.2055 80.9502 27.3344 80.803 27.2443C80.6905 27.1754 80.7596 27.1916 80.803 27.247C80.8359 27.2889 80.8707 27.3298 80.9032 27.3721C81.0092 27.5101 81.1055 27.6533 81.1916 27.8012C81.2116 27.8354 81.2299 27.8704 81.2502 27.9045C81.2882 27.9682 81.3434 27.9849 81.2539 27.905C81.1684 27.8287 81.2229 27.8339 81.2534 27.9074C81.2735 27.9557 81.2955 28.0034 81.315 28.0518C81.3788 28.2096 81.4322 28.3703 81.4752 28.5332C81.4952 28.6084 81.5112 28.6842 81.5283 28.7599C81.589 29.0285 81.5195 28.5929 81.5341 28.7925C81.5464 28.9591 81.5607 29.1238 81.5573 29.2911C81.5557 29.3676 81.5519 29.4441 81.5457 29.5204C81.5426 29.5585 81.5376 29.5965 81.5347 29.6346C81.5206 29.8181 81.5202 29.5675 81.55 29.5504C81.4879 29.7062 81.4467 29.8676 81.4272 30.0314C81.4029 30.1042 81.374 30.1753 81.3469 30.2472C81.2524 30.4982 81.4357 30.1104 81.3349 30.2819C81.252 30.4293 81.1593 30.5724 81.0573 30.7106C81.013 30.7685 80.8461 30.8992 80.9826 30.8082C81.1307 30.7095 80.9049 30.8795 80.8567 30.9232C80.7949 30.9794 80.7306 31.0336 80.664 31.0859C80.6214 31.1217 80.5764 31.1554 80.5293 31.1867C80.5206 31.183 80.7563 31.0513 80.6293 31.121C80.4678 31.2096 80.315 31.3045 80.1448 31.3816C80.125 31.3906 79.9075 31.4774 79.9084 31.4804C79.899 31.4489 80.188 31.3928 79.9896 31.448C79.9479 31.4596 79.9071 31.4736 79.8656 31.4856C79.6849 31.538 79.5005 31.5803 79.3136 31.6122C79.2708 31.6195 79.2255 31.6233 79.1834 31.6327C79.0429 31.6639 79.3176 31.6143 79.3258 31.6184C79.222 31.6146 79.1181 31.6225 79.0166 31.642C78.8238 31.6515 78.6306 31.6515 78.4378 31.6419C78.3932 31.6397 78.3487 31.6359 78.3041 31.6337C78.2005 31.6285 78.1246 31.5643 78.2623 31.634C78.3686 31.6878 78.3598 31.6485 78.2656 31.6336C78.2216 31.6265 78.1773 31.6206 78.1333 31.6135C77.9425 31.5828 77.7538 31.543 77.568 31.4943C77.4681 31.4681 77.3702 31.4376 77.2716 31.408C77.2286 31.3973 77.1868 31.3834 77.1466 31.3666C77.146 31.3569 77.4007 31.4713 77.2662 31.4089C77.0965 31.3302 76.921 31.2642 76.7552 31.1781C76.6668 31.1322 76.5818 31.0823 76.4958 31.0331C76.458 31.0135 76.4221 30.9913 76.3883 30.9668C76.3911 30.9569 76.599 31.1227 76.4899 31.0332C76.3519 30.92 76.2043 30.8187 76.0737 30.6982C76.0438 30.6707 76.0155 30.6418 75.9857 30.6142L75.9569 30.5858C75.8832 30.5083 75.8819 30.5087 75.9528 30.5869C76.0248 30.6052 76.0215 30.6732 75.9532 30.5849C75.9288 30.5534 75.903 30.5228 75.8787 30.4913C75.7683 30.3559 75.6742 30.2113 75.5978 30.0596C75.6044 30.0551 75.7155 30.341 75.6306 30.1253C75.6145 30.0845 75.5965 30.0444 75.5807 30.0036C75.5495 29.9225 75.522 29.8406 75.4983 29.7578C75.4748 29.6757 75.4628 29.591 75.4391 29.5093C75.3991 29.3716 75.4624 29.618 75.4552 29.6119C75.4325 29.5926 75.4422 29.4731 75.4405 29.4446C75.4296 29.261 75.4539 29.0829 75.4577 28.9005C75.4606 28.7592 75.4441 29.0106 75.4407 29.0032C75.4415 28.9609 75.4502 28.919 75.4665 28.879C75.4911 28.7828 75.514 28.6867 75.5441 28.5915C75.5786 28.4826 75.6182 28.375 75.6632 28.2687C75.6799 28.229 75.7004 28.1898 75.716 28.1497C75.7732 28.0028 75.6028 28.3271 75.6967 28.1946C75.826 28.0124 75.9223 27.8152 76.0595 27.6353C76.0921 27.5926 76.2898 27.355 76.1849 27.475C76.0803 27.5945 76.2923 27.368 76.3324 27.3295C76.4991 27.1698 76.6951 27.0386 76.8676 26.8856C76.9698 26.7951 76.7963 26.9302 76.7861 26.9365C76.8396 26.9037 76.8919 26.8695 76.946 26.8375C77.0403 26.7815 77.137 26.7286 77.2359 26.6787C77.3474 26.6224 77.4735 26.5806 77.5815 26.521C77.7091 26.4507 77.4839 26.5519 77.4799 26.554C77.5382 26.5291 77.5991 26.5091 77.6619 26.4943C77.7671 26.4622 78.2247 26.2922 78.3207 26.3454C78.3163 26.343 77.9732 26.3691 78.2506 26.3538C78.3161 26.3502 78.3814 26.3447 78.4471 26.3423C78.5799 26.3376 78.7122 26.3405 78.8448 26.3464C79.2045 26.3444 79.5487 26.2205 79.803 26.0016C80.0573 25.7827 80.2013 25.4864 80.2036 25.1768C80.1959 24.8687 80.0503 24.575 79.7971 24.3571C79.5439 24.1391 79.2028 24.0138 78.8448 24.0072L78.8448 24.0071Z" fill="#E6E6E6"/>
<path d="M353.657 283.046H20.3876C16.1734 283.042 12.1331 281.599 9.15311 279.034C6.17316 276.469 4.49693 272.992 4.49219 269.364V13.6824C4.49691 10.0549 6.17312 6.57705 9.15305 4.01198C12.133 1.44691 16.1733 0.00407541 20.3876 7.62939e-06H353.657C357.871 0.00407541 361.911 1.44691 364.891 4.01198C367.871 6.57705 369.547 10.0549 369.552 13.6824V269.364C369.547 272.992 367.871 276.469 364.891 279.034C361.911 281.599 357.871 283.042 353.657 283.046ZM20.3876 1.55949C16.6537 1.56315 13.0739 2.84155 10.4336 5.11425C7.79332 7.38695 6.30815 10.4683 6.3039 13.6824V269.364C6.30825 272.578 7.79347 275.659 10.4337 277.932C13.074 280.205 16.6537 281.483 20.3876 281.487H353.657C357.391 281.483 360.97 280.205 363.611 277.932C366.251 275.659 367.736 272.578 367.74 269.364V13.6824C367.736 10.4683 366.251 7.38695 363.611 5.11425C360.97 2.84155 357.391 1.56315 353.657 1.55949H20.3876Z" fill="#E6E6E6"/>
<path d="M19.836 173.965L137.035 173.658L253.636 173.353L319.411 173.181C319.763 173.17 320.097 173.042 320.341 172.824C320.586 172.606 320.723 172.314 320.723 172.011C320.723 171.708 320.586 171.416 320.341 171.198C320.097 170.98 319.763 170.852 319.411 170.841L202.212 171.148L85.6108 171.453L19.836 171.626C19.4837 171.636 19.15 171.764 18.9052 171.982C18.6603 172.2 18.5234 172.492 18.5234 172.795C18.5234 173.099 18.6603 173.39 18.9052 173.608C19.15 173.827 19.4837 173.954 19.836 173.965Z" fill="#E6E6E6"/>
<path d="M78.96 172.068L79.6847 135.236C79.7143 133.73 76.9968 133.73 76.9671 135.236L76.2424 172.068C76.2128 173.574 78.9304 173.575 78.96 172.068Z" fill="#E6E6E6"/>
<path d="M134.972 172.467L136.738 126.17L137.243 112.943C137.3 111.437 134.583 111.439 134.525 112.943L132.759 159.239L132.255 172.467C132.197 173.973 134.915 173.971 134.972 172.467Z" fill="#E6E6E6"/>
<path d="M190.835 90.9968C189.769 107.395 187.798 155.762 186.733 172.16C186.635 173.664 189.353 173.659 189.451 172.16C190.516 155.762 192.487 107.395 193.552 90.9968C193.65 89.4927 190.932 89.4975 190.835 90.9968Z" fill="#E6E6E6"/>
<path d="M246.431 155.706L246.098 171.467C246.066 172.973 248.784 172.973 248.816 171.467C249.209 152.852 250.218 153.459 250.329 148.205C250.361 146.699 247.643 146.699 247.611 148.205C247.611 148.205 246.824 137.091 246.431 155.706Z" fill="#E6E6E6"/>
<path d="M300.883 114.301L301.19 158.519L301.278 171.181C301.29 171.484 301.439 171.771 301.692 171.982C301.946 172.193 302.285 172.311 302.637 172.311C302.989 172.311 303.328 172.193 303.582 171.982C303.835 171.771 303.984 171.484 303.996 171.181L303.688 126.963L303.6 114.301C303.588 113.998 303.44 113.711 303.186 113.5C302.933 113.289 302.594 113.171 302.242 113.171C301.889 113.171 301.55 113.289 301.297 113.5C301.044 113.711 300.895 113.998 300.883 114.301Z" fill="#E6E6E6"/>
<path d="M20.0553 172.649C17.8058 167.328 22.8766 162.21 28.0869 159.911C34.3291 157.156 41.5101 156.531 47.8185 153.875C57.2233 149.916 64.0735 142.81 70.1689 135.697C76.4427 128.375 82.1831 120.518 90.155 114.435C94.3558 111.158 99.3172 108.687 104.711 107.184C111.507 105.358 118.714 105.233 125.737 105.969C140.247 107.489 153.699 112.648 167.699 115.927C180.9 119.018 195.444 120.757 208.4 115.949C214.983 113.507 220.366 109.411 226.148 105.866C231.743 102.399 238 99.8016 244.635 98.1898C257.641 95.0766 271.845 95.9079 283.954 101.171C295.084 105.946 303.897 113.953 308.837 123.777C314.578 135.581 313.83 148.772 311.955 161.197C311.47 164.409 310.894 167.609 310.31 170.809C310.042 172.281 312.66 172.916 312.931 171.43C315.266 158.619 317.594 145.401 314.689 132.509C312.176 121.251 304.985 111.168 294.46 104.145C283.89 97.1022 270.751 93.5329 257.4 94.077C250.404 94.3565 243.516 95.675 237.042 97.9744C230.321 100.367 224.63 103.914 218.849 107.646C212.905 111.483 206.778 114.657 199.399 115.909C192.242 117.122 184.796 116.667 177.669 115.521C162.965 113.156 149.259 107.735 134.68 104.958C121.172 102.384 106.596 102.127 94.5003 108.696C85.1959 113.749 78.6213 121.593 72.3116 129.167C66.0572 136.675 59.7237 144.704 50.5782 149.833C44.9993 152.961 38.7279 154.116 32.487 155.875C26.23 157.639 20.2232 160.615 17.672 166.133C16.5724 168.406 16.4879 170.948 17.4348 173.271C18.0281 174.674 20.6553 174.068 20.0553 172.649V172.649Z" fill="#E6E6E6"/>
<path d="M78.0587 130.143L78.0547 130.145L78.0627 130.143H78.0587Z" fill="#E6E6E6"/>
<path d="M82.772 127.991C82.1439 127.034 81.1419 126.299 79.944 125.917C78.7461 125.536 77.4298 125.532 76.2289 125.906C75.632 126.094 75.0848 126.383 74.6197 126.755C74.1546 127.128 73.7811 127.577 73.5212 128.077C73.4692 128.183 73.4388 128.294 73.3963 128.403C73.3375 128.485 73.2667 128.559 73.2139 128.645C72.6507 129.611 72.4965 130.716 72.7778 131.769C73.0592 132.822 73.7585 133.758 74.7553 134.416C75.7521 135.073 76.9841 135.411 78.2389 135.37C79.4938 135.33 80.693 134.914 81.6301 134.195C82.6149 133.428 83.2653 132.395 83.473 131.266C83.6808 130.138 83.4334 128.982 82.772 127.991ZM79.3685 129.977C79.3797 130.037 79.3756 130.091 79.3685 129.977V129.977ZM79.0225 129.3C79.0092 129.287 79.0109 129.289 79.0225 129.3V129.3ZM77.4977 129.828C77.4773 129.801 77.4753 129.797 77.4977 129.828V129.828ZM77.8591 130.092C77.9452 130.117 77.9111 130.112 77.8591 130.092V130.092ZM78.0205 130.158L78.0563 130.144C78.0475 130.145 78.0387 130.143 78.0309 130.14L78.032 130.14L78.06 130.143L78.0653 130.14L78.0491 130.137C78.0631 130.137 78.0647 130.138 78.0657 130.14C78.2273 130.077 78.1179 130.107 78.0241 130.132L78.0179 130.131C77.9594 130.105 77.8965 130.088 77.8316 130.08C77.8256 130.077 77.8185 130.075 77.8135 130.071C77.7614 130.04 77.4985 129.863 77.7424 130.048C77.6893 130.008 77.6369 129.968 77.5869 129.925C77.5575 129.899 77.5308 129.87 77.5072 129.84C77.4752 129.793 77.4442 129.745 77.4141 129.697L77.4096 129.671C77.4056 129.65 77.4026 129.641 77.3993 129.628C77.4008 129.614 77.4033 129.6 77.4058 129.586C77.424 129.544 77.4356 129.5 77.4403 129.455L77.4508 129.444C77.4898 129.397 77.524 129.342 77.5612 129.294C77.3643 129.551 77.6382 129.265 77.6587 129.229C77.6622 129.223 77.6561 129.226 77.6576 129.222C77.6656 129.218 77.6631 129.221 77.6728 129.216C77.7338 129.185 77.7916 129.151 77.8536 129.121C77.9274 129.086 78.2182 129.015 77.9166 129.089C77.9851 129.072 78.0509 129.051 78.1201 129.035C78.1327 129.032 78.2342 129.02 78.2889 129.012C78.3369 129.011 78.3835 129.009 78.3884 129.009C78.4109 129.01 78.4335 129.012 78.456 129.013C78.406 129.019 78.6278 129.06 78.6936 129.069C78.7031 129.075 78.708 129.079 78.7209 129.087C78.7766 129.122 78.8443 129.154 78.9031 129.186C78.6403 129.04 78.9065 129.198 78.9567 129.241C78.9868 129.267 79.0144 129.294 79.0427 129.322C79.0686 129.347 79.092 129.375 79.1127 129.404C79.1557 129.472 79.2016 129.541 79.2468 129.608L79.2594 129.625C79.2591 129.627 79.259 129.629 79.259 129.632C79.2826 129.74 79.3174 129.846 79.3631 129.95C79.3653 129.958 79.367 129.967 79.3682 129.976C79.3724 130.035 79.3782 130.095 79.3783 130.154L79.3777 130.166C79.1684 130.073 78.9362 130.023 78.7003 130.021C78.4643 130.02 78.2313 130.067 78.0205 130.158H78.0205Z" fill="#E6E6E6"/>
<path d="M78.0672 130.141C78.0715 130.143 78.0674 130.142 78.0664 130.143L78.0672 130.141Z" fill="#E6E6E6"/>
<path d="M78.067 130.142L78.0625 130.143C78.0682 130.144 78.0662 130.143 78.067 130.142Z" fill="#E6E6E6"/>
<path d="M78.0625 130.14L78.0645 130.141L78.0625 130.14Z" fill="#E6E6E6"/>
<path d="M136.035 108.31L136.031 108.312L136.039 108.31H136.035Z" fill="#E6E6E6"/>
<path d="M140.745 106.158C140.117 105.201 139.115 104.466 137.917 104.084C136.719 103.703 135.402 103.699 134.202 104.074C133.605 104.261 133.057 104.55 132.592 104.923C132.127 105.295 131.754 105.745 131.494 106.244C131.442 106.35 131.411 106.461 131.369 106.57C131.31 106.652 131.239 106.726 131.187 106.812C130.623 107.778 130.469 108.883 130.75 109.936C131.032 110.99 131.731 111.926 132.728 112.583C133.725 113.24 134.957 113.578 136.212 113.538C137.466 113.497 138.666 113.082 139.603 112.362C140.588 111.596 141.238 110.562 141.446 109.434C141.653 108.305 141.406 107.149 140.745 106.158ZM137.341 108.145C137.352 108.204 137.348 108.258 137.341 108.145V108.145ZM136.995 107.468C136.982 107.454 136.984 107.456 136.995 107.468V107.468ZM135.47 107.995C135.45 107.968 135.448 107.964 135.47 107.995V107.995ZM135.832 108.259C135.918 108.284 135.884 108.279 135.832 108.259V108.259ZM135.993 108.325L136.029 108.311C136.02 108.312 136.011 108.31 136.004 108.307L136.005 108.307L136.033 108.31L136.038 108.308L136.022 108.304C136.036 108.304 136.037 108.306 136.038 108.308C136.2 108.244 136.09 108.275 135.997 108.3L135.99 108.298C135.932 108.273 135.869 108.255 135.804 108.247C135.798 108.244 135.791 108.242 135.786 108.239C135.734 108.207 135.471 108.03 135.715 108.215C135.662 108.175 135.609 108.135 135.56 108.092C135.53 108.066 135.503 108.038 135.48 108.008C135.448 107.96 135.417 107.913 135.387 107.865L135.382 107.839C135.378 107.817 135.375 107.808 135.372 107.795C135.373 107.782 135.376 107.767 135.378 107.753C135.397 107.711 135.408 107.667 135.413 107.623L135.423 107.611C135.462 107.564 135.497 107.51 135.534 107.461C135.337 107.718 135.611 107.433 135.631 107.396C135.635 107.39 135.629 107.394 135.63 107.389C135.638 107.385 135.636 107.388 135.645 107.383C135.706 107.352 135.764 107.318 135.826 107.288C135.9 107.253 136.191 107.182 135.889 107.256C135.958 107.239 136.023 107.218 136.093 107.202C136.105 107.2 136.207 107.187 136.261 107.179C136.309 107.178 136.356 107.177 136.361 107.177C136.384 107.177 136.406 107.179 136.429 107.18C136.379 107.186 136.6 107.227 136.666 107.236C136.676 107.242 136.681 107.246 136.694 107.255C136.749 107.29 136.817 107.321 136.876 107.353C136.613 107.207 136.879 107.365 136.929 107.408C136.959 107.434 136.987 107.462 137.015 107.489C137.041 107.515 137.065 107.542 137.085 107.572C137.128 107.639 137.174 107.708 137.219 107.775L137.232 107.792C137.232 107.794 137.232 107.797 137.232 107.799C137.255 107.907 137.29 108.014 137.336 108.117C137.338 108.126 137.34 108.134 137.341 108.143C137.345 108.203 137.351 108.262 137.351 108.322L137.35 108.334C137.141 108.24 136.909 108.19 136.673 108.189C136.437 108.187 136.204 108.234 135.993 108.325Z" fill="#E6E6E6"/>
<path d="M136.04 108.31L136.035 108.31C136.041 108.311 136.039 108.31 136.04 108.31Z" fill="#E6E6E6"/>
<path d="M136.039 108.308L136.041 108.309L136.039 108.308Z" fill="#E6E6E6"/>
<path d="M136.04 108.308C136.044 108.31 136.04 108.31 136.039 108.31L136.04 108.308Z" fill="#E6E6E6"/>
<path d="M192.203 119.224L192.205 119.225L192.203 119.224Z" fill="#E6E6E6"/>
<path d="M196.909 84.3255C196.281 83.3681 195.279 82.6333 194.081 82.2517C192.883 81.87 191.566 81.8662 190.366 82.241C189.769 82.4285 189.221 82.7172 188.756 83.09C188.291 83.4627 187.918 83.9119 187.658 84.4111C187.606 84.5172 187.576 84.6287 187.533 84.7374C187.474 84.8194 187.403 84.8934 187.351 84.9791C186.787 85.9452 186.633 87.0501 186.915 88.1035C187.196 89.157 187.895 90.093 188.892 90.7504C189.889 91.4077 191.121 91.7453 192.376 91.7049C193.631 91.6646 194.83 91.2488 195.767 90.5292C196.752 89.7629 197.402 88.7295 197.61 87.6009C197.818 86.4722 197.57 85.3163 196.909 84.3255ZM193.505 86.312C193.516 86.371 193.512 86.4253 193.505 86.312V86.312ZM193.159 85.6348C193.146 85.6216 193.148 85.6231 193.159 85.6348V85.6348ZM191.634 86.1626C191.614 86.1356 191.612 86.1311 191.634 86.1626V86.1626ZM191.996 86.4264C192.082 86.4516 192.048 86.4463 191.996 86.4264V86.4264ZM192.157 86.4926L192.193 86.4785C192.184 86.4792 192.175 86.4777 192.168 86.4742L192.169 86.474L192.197 86.477L192.202 86.475L192.186 86.4717C192.2 86.4713 192.201 86.473 192.202 86.4748C192.364 86.4111 192.255 86.4418 192.161 86.4668L192.155 86.4655C192.096 86.4399 192.033 86.4226 191.968 86.4141C191.962 86.4112 191.955 86.4091 191.95 86.406C191.898 86.3741 191.635 86.1973 191.879 86.3827C191.826 86.3423 191.774 86.3027 191.724 86.2591C191.694 86.2331 191.667 86.2049 191.644 86.1748C191.612 86.1275 191.581 86.0799 191.551 86.0318L191.546 86.0058C191.542 85.9843 191.539 85.9753 191.536 85.9624C191.538 85.949 191.54 85.9346 191.542 85.9207C191.561 85.8786 191.572 85.8347 191.577 85.79L191.587 85.7785C191.626 85.7317 191.661 85.677 191.698 85.6282C191.501 85.8857 191.775 85.5998 191.795 85.5636C191.799 85.5574 191.793 85.5608 191.794 85.5565C191.802 85.5527 191.8 85.5553 191.809 85.5505C191.87 85.5195 191.928 85.485 191.99 85.4555C192.064 85.4203 192.355 85.3492 192.053 85.4234C192.122 85.4066 192.188 85.3853 192.257 85.3697C192.269 85.3669 192.371 85.3547 192.426 85.3462C192.474 85.3452 192.52 85.3439 192.525 85.344C192.548 85.3442 192.57 85.3466 192.593 85.3474C192.543 85.3532 192.764 85.3945 192.83 85.4032C192.84 85.4096 192.845 85.4137 192.858 85.4219C192.913 85.4569 192.981 85.488 193.04 85.5207C192.777 85.3745 193.043 85.5323 193.093 85.5756C193.123 85.6014 193.151 85.629 193.179 85.6561C193.205 85.682 193.229 85.7096 193.249 85.7388C193.292 85.8067 193.338 85.8755 193.384 85.9424L193.396 85.9595C193.396 85.9617 193.396 85.964 193.396 85.9662C193.419 86.0746 193.454 86.181 193.5 86.2841C193.502 86.2928 193.504 86.3017 193.505 86.3105C193.509 86.3699 193.515 86.4291 193.515 86.4889L193.514 86.5009C193.305 86.407 193.073 86.3573 192.837 86.3558C192.601 86.3544 192.368 86.4013 192.157 86.4926Z" fill="#E6E6E6"/>
<path d="M192.195 119.226L192.191 119.228L192.199 119.226H192.195Z" fill="#E6E6E6"/>
<path d="M192.204 119.226L192.199 119.227C192.205 119.227 192.203 119.226 192.204 119.226Z" fill="#E6E6E6"/>
<path d="M192.204 119.225C192.208 119.226 192.204 119.226 192.203 119.226L192.204 119.225Z" fill="#E6E6E6"/>
<path d="M253.975 144.366C253.347 143.408 252.345 142.673 251.147 142.292C249.949 141.91 248.633 141.906 247.432 142.281C246.835 142.469 246.288 142.757 245.823 143.13C245.358 143.503 244.984 143.952 244.724 144.451C244.672 144.557 244.642 144.669 244.599 144.778C244.541 144.859 244.47 144.933 244.417 145.019C243.854 145.985 243.7 147.09 243.981 148.144C244.262 149.197 244.962 150.133 245.958 150.79C246.955 151.448 248.187 151.785 249.442 151.745C250.697 151.705 251.896 151.289 252.833 150.569C253.818 149.803 254.468 148.77 254.676 147.641C254.884 146.512 254.637 145.356 253.975 144.366ZM250.572 146.352C250.583 146.411 250.579 146.465 250.572 146.352V146.352ZM250.226 145.675C250.212 145.662 250.214 145.663 250.226 145.675V145.675ZM248.701 146.203C248.68 146.176 248.678 146.171 248.701 146.203V146.203ZM249.062 146.466C249.148 146.492 249.114 146.486 249.062 146.466V146.466ZM249.224 146.533L249.259 146.519C249.251 146.519 249.242 146.518 249.234 146.514L249.235 146.514L249.263 146.517L249.268 146.515L249.252 146.512C249.266 146.511 249.268 146.513 249.269 146.515C249.43 146.451 249.321 146.482 249.227 146.507L249.221 146.506C249.162 146.48 249.1 146.463 249.035 146.454C249.029 146.451 249.022 146.449 249.017 146.446C248.964 146.414 248.702 146.237 248.945 146.423C248.892 146.382 248.84 146.343 248.79 146.299C248.761 146.273 248.734 146.245 248.71 146.215C248.678 146.168 248.647 146.12 248.617 146.072L248.613 146.046C248.609 146.024 248.606 146.015 248.602 146.002C248.604 145.989 248.606 145.975 248.609 145.961C248.627 145.919 248.639 145.875 248.643 145.83L248.654 145.819C248.693 145.772 248.727 145.717 248.764 145.668C248.567 145.926 248.841 145.64 248.862 145.604C248.865 145.597 248.859 145.601 248.861 145.597C248.869 145.593 248.866 145.595 248.876 145.591C248.937 145.56 248.995 145.525 249.057 145.496C249.13 145.46 249.421 145.389 249.12 145.463C249.188 145.447 249.254 145.425 249.323 145.41C249.336 145.407 249.437 145.395 249.492 145.386C249.54 145.385 249.587 145.384 249.591 145.384C249.614 145.384 249.637 145.387 249.659 145.388C249.609 145.393 249.831 145.435 249.897 145.443C249.906 145.45 249.911 145.454 249.924 145.462C249.98 145.497 250.047 145.528 250.106 145.561C249.843 145.415 250.11 145.572 250.16 145.616C250.19 145.641 250.217 145.669 250.246 145.696C250.272 145.722 250.295 145.75 250.316 145.779C250.359 145.847 250.405 145.916 250.45 145.982L250.462 146C250.462 146.002 250.462 146.004 250.462 146.006C250.486 146.115 250.521 146.221 250.566 146.324C250.568 146.333 250.57 146.342 250.571 146.351C250.575 146.41 250.581 146.469 250.581 146.529L250.581 146.541C250.372 146.447 250.139 146.397 249.903 146.396C249.667 146.394 249.434 146.441 249.224 146.533Z" fill="#E6E6E6"/>
<path d="M249.266 95.0544L249.262 95.0564L249.27 95.0544H249.266Z" fill="#E6E6E6"/>
<path d="M249.274 95.054L249.27 95.0547C249.275 95.0553 249.273 95.0544 249.274 95.054Z" fill="#E6E6E6"/>
<path d="M249.274 95.0529C249.279 95.0542 249.274 95.054 249.273 95.0544L249.274 95.0529Z" fill="#E6E6E6"/>
<path d="M249.27 95.052L249.272 95.053L249.27 95.052Z" fill="#E6E6E6"/>
<path d="M307.424 108.497C306.796 107.54 305.794 106.805 304.596 106.424C303.398 106.042 302.082 106.038 300.881 106.413C300.284 106.6 299.737 106.889 299.272 107.262C298.807 107.635 298.433 108.084 298.174 108.583C298.122 108.689 298.091 108.801 298.049 108.909C297.99 108.991 297.919 109.065 297.866 109.151C297.303 110.117 297.149 111.222 297.43 112.276C297.712 113.329 298.411 114.265 299.408 114.922C300.404 115.58 301.636 115.917 302.891 115.877C304.146 115.837 305.345 115.421 306.282 114.701C307.267 113.935 307.918 112.901 308.125 111.773C308.333 110.644 308.086 109.488 307.424 108.497ZM304.021 110.484C304.032 110.543 304.028 110.597 304.021 110.484V110.484ZM303.675 109.807C303.662 109.794 303.663 109.795 303.675 109.807V109.807ZM302.15 110.335C302.13 110.308 302.128 110.303 302.15 110.335V110.335ZM302.511 110.598C302.597 110.624 302.563 110.618 302.511 110.598V110.598ZM302.673 110.665L302.709 110.65C302.7 110.651 302.691 110.65 302.683 110.646L302.684 110.646L302.712 110.649L302.718 110.647L302.701 110.644C302.715 110.643 302.717 110.645 302.718 110.647C302.88 110.583 302.77 110.614 302.676 110.639L302.67 110.637C302.612 110.612 302.549 110.595 302.484 110.586C302.478 110.583 302.471 110.581 302.466 110.578C302.414 110.546 302.151 110.369 302.395 110.555C302.342 110.514 302.289 110.475 302.239 110.431C302.21 110.405 302.183 110.377 302.159 110.347C302.127 110.299 302.096 110.252 302.066 110.204L302.062 110.178C302.058 110.156 302.055 110.147 302.052 110.134C302.053 110.121 302.056 110.107 302.058 110.093C302.076 110.051 302.088 110.007 302.093 109.962L302.103 109.95C302.142 109.904 302.176 109.849 302.214 109.8C302.017 110.058 302.291 109.772 302.311 109.736C302.314 109.729 302.308 109.733 302.31 109.728C302.318 109.725 302.315 109.727 302.325 109.722C302.386 109.691 302.444 109.657 302.506 109.627C302.58 109.592 302.87 109.521 302.569 109.595C302.637 109.579 302.703 109.557 302.772 109.542C302.785 109.539 302.886 109.527 302.941 109.518C302.989 109.517 303.036 109.516 303.041 109.516C303.063 109.516 303.086 109.519 303.108 109.519C303.058 109.525 303.28 109.566 303.346 109.575C303.355 109.582 303.36 109.586 303.373 109.594C303.429 109.629 303.497 109.66 303.555 109.693C303.293 109.546 303.559 109.704 303.609 109.748C303.639 109.773 303.667 109.801 303.695 109.828C303.721 109.854 303.744 109.882 303.765 109.911C303.808 109.979 303.854 110.047 303.899 110.114L303.912 110.131C303.911 110.134 303.911 110.136 303.911 110.138C303.935 110.247 303.97 110.353 304.015 110.456C304.018 110.465 304.019 110.474 304.02 110.483C304.025 110.542 304.03 110.601 304.031 110.661L304.03 110.673C303.821 110.579 303.589 110.529 303.353 110.528C303.117 110.526 302.884 110.573 302.673 110.665Z" fill="#E6E6E6"/>
<path d="M302.711 110.649L302.707 110.651L302.715 110.649H302.711Z" fill="#E6E6E6"/>
<path d="M302.715 110.647L302.717 110.648L302.715 110.647Z" fill="#E6E6E6"/>
<path d="M302.72 110.648C302.724 110.649 302.72 110.649 302.719 110.649L302.72 110.648Z" fill="#E6E6E6"/>
<path d="M302.719 110.649L302.715 110.65C302.721 110.65 302.719 110.649 302.719 110.649Z" fill="#E6E6E6"/>
<path d="M288.065 146.383L245.945 148.398C245.708 148.41 245.474 148.342 245.293 148.21C245.112 148.078 244.996 147.89 244.97 147.687C244.945 147.483 245.01 147.279 245.154 147.116C245.298 146.953 245.51 146.844 245.744 146.811L288.795 140.781L288.065 146.383Z" fill="#3F3D56"/>
<path d="M341.593 227.099L357.465 204.114L369.197 208.883C369.197 208.883 348.982 230.616 348.338 231.241C348.614 232.297 348.511 233.401 348.042 234.406C347.573 235.41 346.761 236.269 345.714 236.868C344.666 237.466 343.431 237.777 342.174 237.759C340.916 237.741 339.694 237.395 338.671 236.766C337.647 236.137 336.869 235.256 336.439 234.238C336.01 233.22 335.95 232.114 336.267 231.067C336.583 230.019 337.262 229.079 338.213 228.37C339.165 227.662 340.343 227.219 341.593 227.099Z" fill="#FFB6B6"/>
<path d="M348.196 173.706L373.911 185.254C375.518 186.251 376.866 187.525 377.868 188.996C378.871 190.466 379.506 192.1 379.732 193.794C379.959 195.488 379.773 197.203 379.185 198.832C378.598 200.46 377.622 201.965 376.321 203.25L358.593 220.754L350.87 211.746L356.823 201.033L345.297 198.417L348.196 173.706Z" fill="#FF5555"/>
<path d="M274.913 146.759L272.017 173.382L259.043 173.4C259.043 173.4 266.486 146.307 266.757 145.505C265.982 144.652 265.526 143.617 265.449 142.537C265.372 141.456 265.678 140.381 266.327 139.453C266.976 138.525 267.936 137.789 269.081 137.342C270.227 136.894 271.503 136.756 272.741 136.947C273.979 137.137 275.121 137.647 276.016 138.408C276.91 139.169 277.515 140.146 277.751 141.209C277.986 142.273 277.841 143.373 277.334 144.364C276.828 145.355 275.983 146.19 274.913 146.759V146.759Z" fill="#FFB6B6"/>
<path d="M300.738 201.202L270.876 196.488C258.302 195.186 253.141 188.065 255.41 181.118L262.712 158.763L274.175 164.053L274.131 175.928L290.176 174.04L300.738 201.202Z" fill="#FF5555"/>
<path d="M288.515 385.186H280.304L276.398 357.925H288.517L288.515 385.186Z" fill="#FFB6B6"/>
<path d="M288.804 392.559L263.555 392.558V392.284C263.555 390.04 264.59 387.888 266.433 386.302C268.276 384.716 270.776 383.824 273.382 383.824H273.383L277.995 380.812L286.6 383.825L288.804 383.825L288.804 392.559Z" fill="#2F2E41"/>
<path d="M346.611 385.186H354.822L358.728 357.925H346.609L346.611 385.186Z" fill="#FFB6B6"/>
<path d="M346.325 392.559L371.574 392.558V392.284C371.574 390.04 370.538 387.888 368.695 386.302C366.852 384.716 364.353 383.824 361.746 383.824H361.746L357.134 380.812L348.528 383.825L346.324 383.825L346.325 392.559Z" fill="#2F2E41"/>
<path d="M276.039 337.891C276.16 336.336 277.125 327.733 277.125 327.733L279.434 309.489L283.504 261.128L287.133 248.417L305.092 254.439L319.664 248.426L336.985 253.192L350.472 257.545C350.472 257.545 350.495 259.409 350.599 261.66C350.738 264.607 350.98 268.22 351.558 269.16C352.522 270.819 352.279 279.73 352.279 279.73C352.279 279.73 353.238 297.86 354.444 299.848C355.651 301.836 355.894 305.976 355.53 306.806C355.166 307.635 356.737 329.408 356.737 329.408C356.737 329.408 360.767 367.937 358.238 373.747C355.709 379.557 346.154 375.751 346.154 375.751C346.154 375.751 346.615 374.201 343.844 373.47C341.073 372.739 332.632 318.107 332.632 318.107C332.632 318.107 331.061 306.905 329.618 303.694C328.175 300.484 326.847 291.464 326.847 291.464C326.847 291.464 317.932 276.535 317.817 273.215C317.817 273.215 316.651 270.109 315.548 273.528C314.445 276.947 311.195 285.137 311.195 285.137L308.025 295.196L304.295 310.225L301.882 322.878C301.882 322.878 298.267 339.671 297.69 340.396C297.113 341.122 297.69 356.463 297.69 356.463C297.69 356.463 294.896 369.529 290.947 371.81C286.997 374.091 276.535 371.846 276.535 371.846C276.535 371.846 275.918 339.447 276.039 337.891Z" fill="#2F2E41"/>
<path d="M289.464 207.514L287.169 233.104L283.721 236.175C283.41 236.452 283.167 236.78 283.007 237.14C282.847 237.5 282.773 237.883 282.789 238.268C282.806 238.653 282.912 239.031 283.102 239.38C283.292 239.728 283.562 240.04 283.895 240.297L281.996 243.101L281.323 251.935C281.131 252.623 281.118 253.338 281.285 254.031C281.451 254.723 281.793 255.375 282.286 255.94C282.78 256.506 283.412 256.97 284.138 257.301C284.863 257.632 285.665 257.82 286.486 257.854L345.939 260.258C346.755 260.291 347.569 260.169 348.324 259.902C349.079 259.634 349.757 259.227 350.309 258.709C350.862 258.191 351.275 257.575 351.521 256.905C351.766 256.235 351.838 255.526 351.73 254.829L346.675 222.069V219.62L344.412 214.889L345.575 199.041L348.281 173.888L332.553 170.391L324.025 165.341L309.21 165.544L300.221 171.899L288.235 173.514L279.17 175.065L278.016 177.225L280.325 176.793L288.696 204.896L289.464 207.514Z" fill="#FF5555"/>
<path d="M316.288 161.912C325.927 161.912 333.74 155.186 333.74 146.889C333.74 138.592 325.927 131.867 316.288 131.867C306.65 131.867 298.836 138.592 298.836 146.889C298.836 155.186 306.65 161.912 316.288 161.912Z" fill="#FFB6B6"/>
<path d="M312.077 160.942L324.687 160.389C326.302 160.318 328.066 160.195 329.241 159.238C329.873 158.647 330.359 157.952 330.67 157.194C331.836 154.863 333.002 152.533 334.138 150.191C335.709 146.952 337.252 143.532 336.851 140.039C336.757 138.444 335.98 136.935 334.669 135.804C334.001 135.259 333.141 134.92 332.225 134.841C331.309 134.761 330.388 134.944 329.605 135.363C329.411 134.258 328.928 133.205 328.191 132.285C327.455 131.365 326.485 130.601 325.355 130.051C323.073 128.966 320.468 128.49 317.871 128.685C314.102 128.894 310.505 130.114 307.584 132.175C306.762 132.827 305.885 133.426 304.959 133.965C304.494 134.233 303.97 134.416 303.419 134.504C302.868 134.592 302.302 134.582 301.756 134.475C301.215 134.351 300.745 134.062 300.432 133.662C300.119 133.262 299.985 132.778 300.055 132.3C299.167 132.872 298.558 133.707 298.347 134.645C298.136 135.582 298.338 136.553 298.914 137.368C298.259 137.604 297.545 137.691 296.84 137.619C296.135 137.547 295.464 137.32 294.892 136.959C294.278 137.221 293.735 137.59 293.297 138.043C292.86 138.496 292.536 139.023 292.349 139.59C292.161 140.157 292.113 140.751 292.207 141.335C292.302 141.918 292.537 142.479 292.897 142.98C293.258 143.481 293.736 143.911 294.301 144.244C294.867 144.577 295.506 144.804 296.179 144.912C296.853 145.02 297.544 145.005 298.211 144.869C298.877 144.733 299.503 144.479 300.049 144.123C300.814 145.046 300.529 146.3 300.429 147.43C300.329 148.561 300.682 149.965 301.948 150.278C303.659 150.7 305.046 148.717 306.826 148.738C307.265 148.768 307.689 148.892 308.059 149.097C308.429 149.303 308.735 149.584 308.949 149.915C309.369 150.582 309.656 151.303 309.799 152.051L312.078 160.881" fill="#2F2E41"/>
<path d="M803.728 296.018C803.728 293.692 802.821 291.804 801.706 291.8H497.932C496.813 291.804 495.911 293.692 495.906 296.018V391.778C495.906 391.994 495.812 392.202 495.644 392.362C495.475 392.522 495.243 392.622 494.994 392.643C494.178 392.711 493.363 392.773 492.548 392.831C492.527 392.831 492.507 392.836 492.487 392.836C492.043 392.87 491.6 392.896 491.156 392.927H491.151C490.923 392.564 490.697 392.197 490.474 391.828C490.399 391.703 490.359 391.565 490.359 391.424V290.546C490.359 289.903 490.39 289.257 490.44 288.619C490.512 287.743 490.638 286.871 490.818 286.006C491.67 281.974 493.596 279.244 495.785 279.236H803.849C804.169 279.237 804.484 279.295 804.777 279.405C805.207 279.569 805.596 279.803 805.921 280.095C806.364 280.491 806.742 280.936 807.046 281.419C808.301 283.572 809.024 285.926 809.169 288.332C809.169 288.358 809.173 288.384 809.173 288.41C809.244 289.113 809.279 289.83 809.274 290.546L809.345 299.846L809.39 305.393L809.526 322.796L809.577 328.977L809.799 392.428C809.799 392.658 809.692 392.879 809.503 393.042C809.314 393.204 809.058 393.296 808.79 393.296H804.737C804.469 393.296 804.213 393.204 804.024 393.042C803.835 392.879 803.728 392.658 803.728 392.428V296.018Z" fill="#E6E6E6"/>
<path d="M721.183 235.716H688.451C687.988 235.716 687.544 235.875 687.217 236.157C686.89 236.44 686.707 236.822 686.707 237.221V281.729H722.931V237.221C722.931 237.023 722.886 236.827 722.798 236.645C722.711 236.462 722.582 236.296 722.419 236.156C722.257 236.016 722.064 235.906 721.852 235.83C721.64 235.754 721.413 235.716 721.183 235.716ZM704.927 261.005C703.903 261.001 702.923 260.649 702.199 260.026C701.475 259.403 701.067 258.559 701.062 257.678V252.544C701.062 251.662 701.469 250.816 702.194 250.192C702.919 249.568 703.902 249.217 704.927 249.217C705.952 249.217 706.935 249.568 707.66 250.192C708.385 250.816 708.792 251.662 708.792 252.544V257.678C708.787 258.559 708.379 259.403 707.655 260.026C706.931 260.649 705.951 261.001 704.927 261.005Z" fill="#CCCCCC"/>
<path d="M686.594 280.305V284.6C686.594 284.822 686.697 285.035 686.88 285.193C687.063 285.35 687.311 285.439 687.569 285.439H722.067C722.326 285.438 722.573 285.349 722.756 285.192C722.938 285.035 723.041 284.822 723.043 284.6V280.305H686.594Z" fill="#3F3D56"/>
<path d="M775.382 166.255H635.464C634.262 166.257 633.11 166.669 632.26 167.4C631.41 168.132 630.932 169.124 630.93 170.159V251.431C630.931 252.466 631.409 253.458 632.259 254.19C633.109 254.921 634.262 255.333 635.464 255.334H775.382C776.584 255.333 777.737 254.921 778.587 254.19C779.437 253.458 779.915 252.466 779.917 251.431V170.159C779.915 169.124 779.436 168.132 778.586 167.4C777.736 166.669 776.584 166.257 775.382 166.255Z" fill="#E6E6E6"/>
<path d="M774.216 169.075H636.636C635.992 169.076 635.376 169.297 634.921 169.689C634.466 170.081 634.211 170.612 634.211 171.167V250.424C634.212 250.977 634.468 251.508 634.923 251.899C635.377 252.29 635.993 252.511 636.636 252.512H774.216C774.859 252.511 775.476 252.29 775.93 251.899C776.385 251.508 776.641 250.977 776.642 250.424V171.167C776.642 170.613 776.386 170.081 775.932 169.689C775.477 169.297 774.86 169.076 774.216 169.075Z" fill="white"/>
<path d="M747.417 286.933H665.564C665.34 286.933 665.119 286.89 664.917 286.807C664.715 286.724 664.536 286.604 664.395 286.454C664.254 286.304 664.153 286.129 664.101 285.942C664.048 285.754 664.045 285.559 664.091 285.37L665.361 280.178C665.433 279.887 665.619 279.627 665.887 279.44C666.155 279.253 666.489 279.15 666.834 279.149H746.147C746.492 279.15 746.827 279.253 747.095 279.44C747.363 279.627 747.548 279.887 747.621 280.178L748.891 285.37C748.937 285.559 748.933 285.754 748.881 285.942C748.828 286.129 748.728 286.304 748.586 286.454C748.445 286.604 748.267 286.724 748.065 286.807C747.862 286.89 747.641 286.933 747.417 286.933Z" fill="#CCCCCC"/>
<path d="M669.493 280.084H667.856C667.612 280.084 667.414 280.254 667.414 280.464V281.005C667.414 281.215 667.612 281.386 667.856 281.386H669.493C669.737 281.386 669.935 281.215 669.935 281.005V280.464C669.935 280.254 669.737 280.084 669.493 280.084Z" fill="#E6E6E6"/>
<path d="M674.536 280.084H672.899C672.655 280.084 672.457 280.254 672.457 280.464V281.005C672.457 281.215 672.655 281.386 672.899 281.386H674.536C674.78 281.386 674.978 281.215 674.978 281.005V280.464C674.978 280.254 674.78 280.084 674.536 280.084Z" fill="#E6E6E6"/>
<path d="M679.579 280.084H677.942C677.698 280.084 677.5 280.254 677.5 280.464V281.005C677.5 281.215 677.698 281.386 677.942 281.386H679.579C679.823 281.386 680.021 281.215 680.021 281.005V280.464C680.021 280.254 679.823 280.084 679.579 280.084Z" fill="#E6E6E6"/>
<path d="M684.622 280.084H682.985C682.741 280.084 682.543 280.254 682.543 280.464V281.005C682.543 281.215 682.741 281.386 682.985 281.386H684.622C684.866 281.386 685.064 281.215 685.064 281.005V280.464C685.064 280.254 684.866 280.084 684.622 280.084Z" fill="#E6E6E6"/>
<path d="M689.661 280.084H688.024C687.78 280.084 687.582 280.254 687.582 280.464V281.005C687.582 281.215 687.78 281.386 688.024 281.386H689.661C689.905 281.386 690.103 281.215 690.103 281.005V280.464C690.103 280.254 689.905 280.084 689.661 280.084Z" fill="#E6E6E6"/>
<path d="M694.704 280.084H693.067C692.823 280.084 692.625 280.254 692.625 280.464V281.005C692.625 281.215 692.823 281.386 693.067 281.386H694.704C694.948 281.386 695.146 281.215 695.146 281.005V280.464C695.146 280.254 694.948 280.084 694.704 280.084Z" fill="#E6E6E6"/>
<path d="M699.747 280.084H698.11C697.866 280.084 697.668 280.254 697.668 280.464V281.005C697.668 281.215 697.866 281.386 698.11 281.386H699.747C699.991 281.386 700.189 281.215 700.189 281.005V280.464C700.189 280.254 699.991 280.084 699.747 280.084Z" fill="#E6E6E6"/>
<path d="M704.79 280.084H703.153C702.909 280.084 702.711 280.254 702.711 280.464V281.005C702.711 281.215 702.909 281.386 703.153 281.386H704.79C705.034 281.386 705.232 281.215 705.232 281.005V280.464C705.232 280.254 705.034 280.084 704.79 280.084Z" fill="#E6E6E6"/>
<path d="M709.829 280.084H708.192C707.948 280.084 707.75 280.254 707.75 280.464V281.005C707.75 281.215 707.948 281.386 708.192 281.386H709.829C710.073 281.386 710.271 281.215 710.271 281.005V280.464C710.271 280.254 710.073 280.084 709.829 280.084Z" fill="#E6E6E6"/>
<path d="M714.872 280.084H713.235C712.991 280.084 712.793 280.254 712.793 280.464V281.005C712.793 281.215 712.991 281.386 713.235 281.386H714.872C715.116 281.386 715.314 281.215 715.314 281.005V280.464C715.314 280.254 715.116 280.084 714.872 280.084Z" fill="#E6E6E6"/>
<path d="M719.915 280.084H718.278C718.034 280.084 717.836 280.254 717.836 280.464V281.005C717.836 281.215 718.034 281.386 718.278 281.386H719.915C720.159 281.386 720.357 281.215 720.357 281.005V280.464C720.357 280.254 720.159 280.084 719.915 280.084Z" fill="#E6E6E6"/>
<path d="M724.958 280.084H723.321C723.077 280.084 722.879 280.254 722.879 280.464V281.005C722.879 281.215 723.077 281.386 723.321 281.386H724.958C725.202 281.386 725.4 281.215 725.4 281.005V280.464C725.4 280.254 725.202 280.084 724.958 280.084Z" fill="#E6E6E6"/>
<path d="M729.997 280.084H728.36C728.116 280.084 727.918 280.254 727.918 280.464V281.005C727.918 281.215 728.116 281.386 728.36 281.386H729.997C730.241 281.386 730.439 281.215 730.439 281.005V280.464C730.439 280.254 730.241 280.084 729.997 280.084Z" fill="#E6E6E6"/>
<path d="M735.04 280.084H733.403C733.159 280.084 732.961 280.254 732.961 280.464V281.005C732.961 281.215 733.159 281.386 733.403 281.386H735.04C735.284 281.386 735.482 281.215 735.482 281.005V280.464C735.482 280.254 735.284 280.084 735.04 280.084Z" fill="#E6E6E6"/>
<path d="M740.083 280.084H738.446C738.202 280.084 738.004 280.254 738.004 280.464V281.005C738.004 281.215 738.202 281.386 738.446 281.386H740.083C740.327 281.386 740.525 281.215 740.525 281.005V280.464C740.525 280.254 740.327 280.084 740.083 280.084Z" fill="#E6E6E6"/>
<path d="M745.126 280.084H743.489C743.245 280.084 743.047 280.254 743.047 280.464V281.005C743.047 281.215 743.245 281.386 743.489 281.386H745.126C745.37 281.386 745.568 281.215 745.568 281.005V280.464C745.568 280.254 745.37 280.084 745.126 280.084Z" fill="#E6E6E6"/>
<path d="M669.434 282.254H667.798C667.553 282.254 667.355 282.424 667.355 282.634V283.175C667.355 283.385 667.553 283.556 667.798 283.556H669.434C669.678 283.556 669.876 283.385 669.876 283.175V282.634C669.876 282.424 669.678 282.254 669.434 282.254Z" fill="#E6E6E6"/>
<path d="M674.477 282.254H672.841C672.596 282.254 672.398 282.424 672.398 282.634V283.175C672.398 283.385 672.596 283.556 672.841 283.556H674.477C674.721 283.556 674.919 283.385 674.919 283.175V282.634C674.919 282.424 674.721 282.254 674.477 282.254Z" fill="#E6E6E6"/>
<path d="M679.52 282.254H677.884C677.639 282.254 677.441 282.424 677.441 282.634V283.175C677.441 283.385 677.639 283.556 677.884 283.556H679.52C679.764 283.556 679.962 283.385 679.962 283.175V282.634C679.962 282.424 679.764 282.254 679.52 282.254Z" fill="#E6E6E6"/>
<path d="M684.559 282.254H682.923C682.678 282.254 682.48 282.424 682.48 282.634V283.175C682.48 283.385 682.678 283.556 682.923 283.556H684.559C684.803 283.556 685.001 283.385 685.001 283.175V282.634C685.001 282.424 684.803 282.254 684.559 282.254Z" fill="#E6E6E6"/>
<path d="M689.602 282.254H687.966C687.721 282.254 687.523 282.424 687.523 282.634V283.175C687.523 283.385 687.721 283.556 687.966 283.556H689.602C689.846 283.556 690.044 283.385 690.044 283.175V282.634C690.044 282.424 689.846 282.254 689.602 282.254Z" fill="#E6E6E6"/>
<path d="M694.645 282.254H693.009C692.764 282.254 692.566 282.424 692.566 282.634V283.175C692.566 283.385 692.764 283.556 693.009 283.556H694.645C694.889 283.556 695.087 283.385 695.087 283.175V282.634C695.087 282.424 694.889 282.254 694.645 282.254Z" fill="#E6E6E6"/>
<path d="M699.688 282.254H698.052C697.807 282.254 697.609 282.424 697.609 282.634V283.175C697.609 283.385 697.807 283.556 698.052 283.556H699.688C699.932 283.556 700.13 283.385 700.13 283.175V282.634C700.13 282.424 699.932 282.254 699.688 282.254Z" fill="#E6E6E6"/>
<path d="M704.727 282.254H703.091C702.846 282.254 702.648 282.424 702.648 282.634V283.175C702.648 283.385 702.846 283.556 703.091 283.556H704.727C704.971 283.556 705.169 283.385 705.169 283.175V282.634C705.169 282.424 704.971 282.254 704.727 282.254Z" fill="#E6E6E6"/>
<path d="M709.77 282.254H708.134C707.889 282.254 707.691 282.424 707.691 282.634V283.175C707.691 283.385 707.889 283.556 708.134 283.556H709.77C710.014 283.556 710.212 283.385 710.212 283.175V282.634C710.212 282.424 710.014 282.254 709.77 282.254Z" fill="#E6E6E6"/>
<path d="M714.813 282.254H713.177C712.932 282.254 712.734 282.424 712.734 282.634V283.175C712.734 283.385 712.932 283.556 713.177 283.556H714.813C715.057 283.556 715.255 283.385 715.255 283.175V282.634C715.255 282.424 715.057 282.254 714.813 282.254Z" fill="#E6E6E6"/>
<path d="M719.856 282.254H718.22C717.975 282.254 717.777 282.424 717.777 282.634V283.175C717.777 283.385 717.975 283.556 718.22 283.556H719.856C720.1 283.556 720.298 283.385 720.298 283.175V282.634C720.298 282.424 720.1 282.254 719.856 282.254Z" fill="#E6E6E6"/>
<path d="M724.895 282.254H723.259C723.014 282.254 722.816 282.424 722.816 282.634V283.175C722.816 283.385 723.014 283.556 723.259 283.556H724.895C725.139 283.556 725.337 283.385 725.337 283.175V282.634C725.337 282.424 725.139 282.254 724.895 282.254Z" fill="#E6E6E6"/>
<path d="M729.938 282.254H728.302C728.057 282.254 727.859 282.424 727.859 282.634V283.175C727.859 283.385 728.057 283.556 728.302 283.556H729.938C730.182 283.556 730.38 283.385 730.38 283.175V282.634C730.38 282.424 730.182 282.254 729.938 282.254Z" fill="#E6E6E6"/>
<path d="M734.981 282.254H733.345C733.1 282.254 732.902 282.424 732.902 282.634V283.175C732.902 283.385 733.1 283.556 733.345 283.556H734.981C735.225 283.556 735.423 283.385 735.423 283.175V282.634C735.423 282.424 735.225 282.254 734.981 282.254Z" fill="#E6E6E6"/>
<path d="M740.024 282.254H738.388C738.143 282.254 737.945 282.424 737.945 282.634V283.175C737.945 283.385 738.143 283.556 738.388 283.556H740.024C740.268 283.556 740.466 283.385 740.466 283.175V282.634C740.466 282.424 740.268 282.254 740.024 282.254Z" fill="#E6E6E6"/>
<path d="M745.063 282.254H743.427C743.182 282.254 742.984 282.424 742.984 282.634V283.175C742.984 283.385 743.182 283.556 743.427 283.556H745.063C745.307 283.556 745.505 283.385 745.505 283.175V282.634C745.505 282.424 745.307 282.254 745.063 282.254Z" fill="#E6E6E6"/>
<path d="M711.284 284.858H692.001C691.757 284.858 691.559 285.028 691.559 285.238V285.779C691.559 285.989 691.757 286.16 692.001 286.16H711.284C711.528 286.16 711.726 285.989 711.726 285.779V285.238C711.726 285.028 711.528 284.858 711.284 284.858Z" fill="#E6E6E6"/>
<path d="M767.3 179.995H638.567C638.433 179.992 638.306 179.944 638.212 179.862C638.119 179.78 638.066 179.669 638.066 179.554C638.066 179.439 638.119 179.328 638.212 179.246C638.306 179.163 638.433 179.116 638.567 179.113H767.3C767.434 179.116 767.562 179.163 767.655 179.246C767.749 179.328 767.801 179.439 767.801 179.554C767.801 179.669 767.749 179.78 767.655 179.862C767.562 179.944 767.434 179.992 767.3 179.995Z" fill="#CACACA"/>
<path d="M647.328 176.863C648.985 176.863 650.328 175.681 650.328 174.223C650.328 172.765 648.985 171.583 647.328 171.583C645.671 171.583 644.328 172.765 644.328 174.223C644.328 175.681 645.671 176.863 647.328 176.863Z" fill="#CCCCCC"/>
<path d="M657.692 176.863C659.349 176.863 660.692 175.681 660.692 174.223C660.692 172.765 659.349 171.583 657.692 171.583C656.035 171.583 654.691 172.765 654.691 174.223C654.691 175.681 656.035 176.863 657.692 176.863Z" fill="#CCCCCC"/>
<path d="M668.059 176.863C669.716 176.863 671.059 175.681 671.059 174.223C671.059 172.765 669.716 171.583 668.059 171.583C666.402 171.583 665.059 172.765 665.059 174.223C665.059 175.681 666.402 176.863 668.059 176.863Z" fill="#CCCCCC"/>
<path d="M761.061 172.238H753.699C753.553 172.24 753.414 172.292 753.312 172.381C753.21 172.471 753.152 172.592 753.152 172.717C753.152 172.843 753.21 172.964 753.312 173.053C753.414 173.143 753.553 173.195 753.699 173.197H761.061C761.207 173.195 761.346 173.143 761.448 173.053C761.55 172.964 761.608 172.843 761.608 172.717C761.608 172.592 761.55 172.471 761.448 172.381C761.346 172.292 761.207 172.24 761.061 172.238H761.061Z" fill="#CCCCCC"/>
<path d="M761.061 174.039H753.699C753.553 174.041 753.414 174.093 753.312 174.183C753.21 174.272 753.152 174.393 753.152 174.519C753.152 174.644 753.21 174.765 753.312 174.855C753.414 174.944 753.553 174.996 753.699 174.998H761.061C761.207 174.996 761.346 174.944 761.448 174.855C761.55 174.765 761.607 174.644 761.607 174.519C761.607 174.393 761.55 174.272 761.448 174.183C761.346 174.093 761.207 174.041 761.061 174.039H761.061Z" fill="#CCCCCC"/>
<path d="M761.061 175.838H753.699C753.553 175.84 753.414 175.892 753.312 175.981C753.21 176.071 753.152 176.192 753.152 176.317C753.152 176.443 753.21 176.564 753.312 176.653C753.414 176.743 753.553 176.795 753.699 176.797H761.061C761.207 176.795 761.346 176.743 761.448 176.653C761.55 176.564 761.608 176.443 761.608 176.317C761.608 176.192 761.55 176.071 761.448 175.981C761.346 175.892 761.207 175.84 761.061 175.838H761.061Z" fill="#CCCCCC"/>
<path d="M713.328 204.003H697.242C696.034 204.003 695.055 204.846 695.055 205.886C695.055 206.926 696.034 207.769 697.242 207.769H713.328C714.537 207.769 715.516 206.926 715.516 205.886C715.516 204.846 714.537 204.003 713.328 204.003Z" fill="#FF5555"/>
<path d="M723.717 211.535H686.848C685.64 211.535 684.66 212.378 684.66 213.418C684.66 214.458 685.64 215.301 686.848 215.301H723.717C724.925 215.301 725.905 214.458 725.905 213.418C725.905 212.378 724.925 211.535 723.717 211.535Z" fill="#E6E6E6"/>
<path d="M723.717 219.068H686.848C685.64 219.068 684.66 219.911 684.66 220.951C684.66 221.991 685.64 222.834 686.848 222.834H723.717C724.925 222.834 725.905 221.991 725.905 220.951C725.905 219.911 724.925 219.068 723.717 219.068Z" fill="#E6E6E6"/>
<path d="M475.326 336.417L467.91 333.364L478.097 306.683L489.041 311.188L475.326 336.417Z" fill="#FFB6B6"/>
<path d="M525.043 332.115C524.504 332.406 523.964 332.692 523.42 332.978C522.336 333.55 521.241 334.113 520.146 334.666C519.596 334.943 519.04 335.219 518.49 335.491V335.505L518.457 335.51L518.447 335.515L517.608 335.693L516.404 332.955L515.848 331.693L515.064 329.907L513.626 326.639L506.055 309.432L517.826 306.933L518.267 308.485H518.272L518.49 309.253L522.603 323.61L523.441 326.545L523.469 326.634L523.975 328.388L524.411 329.907L524.896 331.604L525.043 332.115Z" fill="#FFB6B6"/>
<path d="M595.261 271.687C594.515 272.719 593.752 273.745 592.984 274.763C591.557 276.657 590.092 278.523 588.588 280.361C588.588 280.366 588.583 280.366 588.578 280.37C587.7 281.07 586.732 281.679 585.691 282.185C585.647 282.213 585.598 282.232 585.555 282.255C584.788 282.62 583.972 282.902 583.125 283.095C582.82 283.16 582.51 283.226 582.205 283.291C581.104 283.516 580.015 283.709 578.931 283.878C577.003 284.173 575.096 284.384 573.201 284.515C573.048 284.529 572.896 284.539 572.743 284.548C564.949 285.04 557.361 284.248 549.441 282.949C545.53 282.312 541.537 281.547 537.403 280.755C536.052 280.492 534.696 280.234 533.323 279.977C533.22 279.958 533.111 279.934 533.002 279.916C531.041 279.545 529.047 279.18 527.005 278.818C524.434 278.364 521.781 277.923 519.025 277.506L519.221 280.849C519.384 283.42 520.005 285.955 521.062 288.365C522.239 291.328 523.17 293.672 521.204 298.553L520.256 300.916C520.747 302.09 520.916 303.345 520.749 304.584C520.581 305.823 520.083 307.012 519.292 308.057L519.101 308.305L527.005 325.517L527.517 326.633H523.47L518.491 326.638H510.054L497.88 305.614L497.297 304.611V304.559L498.555 264.157C498.571 263.801 498.604 263.44 498.659 263.083C498.88 261.463 499.475 259.898 500.407 258.478C501.34 257.058 502.591 255.812 504.089 254.813C505.525 253.847 507.169 253.137 508.926 252.723C510.683 252.309 512.518 252.2 514.324 252.403L518.491 252.867L527.005 253.814L533.002 254.484L533.122 254.498L550.808 256.468L552.077 252.013L552.311 251.938L559.757 249.589L585.511 241.464L585.576 241.445L587.27 240.911L587.472 241.192C587.532 241.277 587.592 241.361 587.646 241.445C589.32 244.029 590.684 246.753 591.715 249.575C593.449 254.186 594.877 258.877 595.991 263.627C596.04 263.834 596.083 264.021 596.122 264.19L596.138 264.242C596.154 264.321 596.165 264.373 596.171 264.387C596.681 266.845 596.366 269.378 595.261 271.687Z" fill="#2F2E41"/>
<path d="M596.347 256.798C596.265 256.498 596.161 256.193 596.053 255.897C595.188 253.66 594.18 251.466 593.035 249.324C591.749 246.886 590.208 244.274 588.372 241.447C587.484 240.078 586.529 238.654 585.507 237.176C584.995 236.435 584.463 235.68 583.911 234.911C583.89 234.876 583.866 234.841 583.84 234.808L583.682 234.583L558.201 237.518L548.713 238.61L548.146 242.68L548.01 243.688C548.005 243.688 548.005 243.688 548.01 243.693L547.629 246.44V246.445L547.122 250.074L547.079 250.07L532.998 248.499L518.487 246.881L510.693 246.014C508.886 245.811 507.051 245.92 505.294 246.334C503.537 246.747 501.893 247.458 500.458 248.424C498.96 249.423 497.709 250.669 496.777 252.089C495.844 253.509 495.25 255.075 495.027 256.695C494.978 257.023 494.946 257.36 494.929 257.693L487.576 272.692C483.176 281.662 480.373 291.153 479.264 300.843L473.871 315.683L474.639 315.743L486.067 316.658L489.085 316.902L495.73 308.551C496.487 307.599 497.206 306.619 497.876 305.616C498.979 303.977 499.96 302.28 500.812 300.533L515.187 271.089C516.298 271.253 517.398 271.409 518.487 271.558C523.526 272.261 528.363 272.835 532.998 273.278C548.07 274.727 561.121 274.84 572.739 273.611C576.002 273.269 579.156 272.819 582.201 272.261C583.318 272.059 584.42 271.842 585.507 271.609C585.763 271.558 586.014 271.506 586.264 271.45C588.515 270.95 590.585 269.972 592.284 268.606C593.982 267.24 595.256 265.529 595.987 263.629C596.861 261.428 596.985 259.058 596.347 256.798Z" fill="#2F2E41"/>
<path d="M477.693 332.06L469.67 328.75L468.412 328.229L466.402 332.477L452.37 335.136C451.677 335.267 451.05 335.585 450.581 336.045C450.113 336.504 449.827 337.08 449.766 337.69C449.705 338.299 449.872 338.909 450.243 339.43C450.613 339.952 451.168 340.358 451.826 340.589L465.536 345.404L469.888 342.033L468.82 346.557L473.984 348.372L479.643 332.866L477.693 332.06Z" fill="#2F2E41"/>
<path d="M527.004 325.518L527.517 326.634H527.004V325.518Z" fill="#2F2E41"/>
<path d="M524.21 326.872L515.803 329.379L514.483 329.771L516.527 334.007L508.73 344.395C508.344 344.908 508.159 345.514 508.201 346.124C508.244 346.734 508.512 347.317 508.967 347.787C509.422 348.256 510.039 348.589 510.729 348.735C511.418 348.881 512.144 348.833 512.8 348.599L526.478 343.717L526.815 338.686L529.755 342.547L534.907 340.709L526.254 326.264L524.21 326.872Z" fill="#2F2E41"/>
<path d="M473.184 171.737C473.583 172.406 474.147 172.991 474.837 173.451C475.526 173.912 476.325 174.237 477.176 174.403C478.028 174.569 478.911 174.572 479.764 174.413C480.617 174.253 481.419 173.935 482.114 173.48L499.792 183.581L499.826 174.09L483.033 165.952C482.067 164.999 480.729 164.383 479.271 164.222C477.813 164.061 476.337 164.366 475.123 165.079C473.909 165.792 473.042 166.864 472.684 168.091C472.327 169.318 472.505 170.616 473.184 171.737V171.737Z" fill="#FFB6B6"/>
<path d="M486.391 176.124L494.639 168.047L528.222 185.209L572.742 181.699C574.942 181.526 577.16 181.772 579.238 182.419C581.316 183.067 583.202 184.1 584.764 185.445C586.326 186.791 587.524 188.416 588.275 190.205C589.025 191.995 589.308 193.904 589.104 195.798C588.732 199.219 586.799 202.372 583.728 204.568C580.658 206.763 576.701 207.82 572.727 207.507L522.588 203.512L486.391 176.124Z" fill="#CCCCCC"/>
<path d="M589.719 176.249L589.641 176.165C583.379 175.633 577.071 176.677 571.483 179.169C565.896 181.661 561.268 185.495 558.161 190.206L554.383 195.935C542.162 208.795 551.042 217.664 551.574 218.983L547.332 235.818L548.283 241.453L548.758 243.126L597.179 264.905C599.936 253.504 597.27 243.788 587.227 236.366L596.944 210.34C599.099 204.585 599.567 198.461 598.306 192.513C597.045 186.565 594.095 180.978 589.719 176.249Z" fill="#CCCCCC"/>
<path d="M551.215 302.689H535.683C534.829 302.689 534.003 302.423 533.358 301.941C532.713 301.458 532.292 300.792 532.172 300.064C531.213 293.989 531.213 287.831 532.172 281.756C532.291 281.036 532.704 280.377 533.336 279.896C533.968 279.415 534.779 279.144 535.623 279.131C540.51 277.245 545.773 277.245 551.268 279.131C551.78 279.136 552.284 279.239 552.745 279.43C553.206 279.621 553.613 279.897 553.937 280.238C554.275 280.593 554.517 281.008 554.645 281.454C554.773 281.899 554.784 282.363 554.677 282.813C553.43 288.157 553.43 293.662 554.677 299.007C554.784 299.456 554.773 299.921 554.645 300.366C554.517 300.811 554.275 301.226 553.937 301.581C553.607 301.928 553.192 302.208 552.721 302.399C552.25 302.591 551.736 302.69 551.215 302.689Z" fill="#FF5555"/>
<path d="M549.588 286.111H536.516C536.408 286.111 536.301 286.094 536.201 286.059C536.101 286.024 536.01 285.972 535.933 285.907C535.857 285.841 535.796 285.764 535.754 285.678C535.713 285.592 535.691 285.5 535.691 285.407C535.691 285.314 535.713 285.222 535.754 285.137C535.796 285.051 535.857 284.973 535.933 284.908C536.01 284.842 536.101 284.791 536.201 284.756C536.301 284.721 536.408 284.703 536.516 284.704H549.588C549.696 284.703 549.803 284.721 549.903 284.756C550.003 284.791 550.094 284.842 550.171 284.908C550.247 284.973 550.308 285.051 550.35 285.137C550.391 285.222 550.413 285.314 550.413 285.407C550.413 285.5 550.391 285.592 550.35 285.678C550.308 285.764 550.247 285.841 550.171 285.907C550.094 285.972 550.003 286.024 549.903 286.059C549.803 286.094 549.696 286.111 549.588 286.111Z" fill="white"/>
<path d="M549.588 291.737H536.516C536.408 291.738 536.301 291.72 536.201 291.685C536.101 291.65 536.01 291.599 535.933 291.533C535.857 291.468 535.796 291.39 535.754 291.304C535.713 291.219 535.691 291.127 535.691 291.034C535.691 290.941 535.713 290.849 535.754 290.763C535.796 290.677 535.857 290.6 535.933 290.534C536.01 290.469 536.101 290.417 536.201 290.382C536.301 290.347 536.408 290.33 536.516 290.33H549.588C549.696 290.33 549.803 290.347 549.903 290.382C550.003 290.417 550.094 290.469 550.171 290.534C550.247 290.6 550.308 290.677 550.35 290.763C550.391 290.849 550.413 290.941 550.413 291.034C550.413 291.127 550.391 291.219 550.35 291.304C550.308 291.39 550.247 291.468 550.171 291.533C550.094 291.599 550.003 291.65 549.903 291.685C549.803 291.72 549.696 291.738 549.588 291.737Z" fill="white"/>
<path d="M549.589 297.363H536.516C536.408 297.364 536.301 297.347 536.201 297.312C536.101 297.277 536.01 297.225 535.933 297.16C535.857 297.094 535.796 297.017 535.754 296.931C535.713 296.845 535.691 296.753 535.691 296.66C535.691 296.567 535.713 296.475 535.754 296.389C535.796 296.304 535.857 296.226 535.933 296.16C536.01 296.095 536.101 296.043 536.201 296.008C536.301 295.973 536.408 295.956 536.516 295.957H549.589C549.697 295.956 549.804 295.973 549.904 296.008C550.004 296.043 550.095 296.095 550.172 296.16C550.248 296.226 550.309 296.304 550.351 296.389C550.392 296.475 550.414 296.567 550.414 296.66C550.414 296.753 550.392 296.845 550.351 296.931C550.309 297.017 550.248 297.094 550.172 297.16C550.095 297.225 550.004 297.277 549.904 297.312C549.804 297.347 549.697 297.364 549.589 297.363Z" fill="white"/>
<path d="M476.031 176.371H460.499C459.645 176.371 458.82 176.105 458.175 175.622C457.53 175.14 457.109 174.474 456.989 173.746C456.03 167.671 456.03 161.512 456.989 155.438C457.107 154.718 457.52 154.059 458.152 153.578C458.785 153.097 459.596 152.825 460.44 152.813C465.327 150.927 470.589 150.927 476.085 152.812C476.596 152.818 477.101 152.921 477.562 153.112C478.023 153.303 478.429 153.579 478.753 153.92C479.091 154.275 479.333 154.69 479.461 155.136C479.589 155.581 479.6 156.045 479.494 156.495C478.246 161.839 478.246 167.344 479.494 172.689C479.6 173.138 479.589 173.602 479.461 174.048C479.333 174.493 479.091 174.908 478.753 175.263C478.424 175.61 478.008 175.89 477.538 176.081C477.067 176.273 476.552 176.372 476.031 176.371Z" fill="#FF5555"/>
<path d="M474.405 159.793H461.332C461.224 159.793 461.117 159.776 461.017 159.741C460.917 159.706 460.826 159.654 460.75 159.589C460.673 159.523 460.612 159.446 460.571 159.36C460.529 159.274 460.508 159.182 460.508 159.089C460.508 158.996 460.529 158.904 460.571 158.819C460.612 158.733 460.673 158.655 460.75 158.59C460.826 158.524 460.917 158.473 461.017 158.438C461.117 158.403 461.224 158.385 461.332 158.386H474.405C474.513 158.385 474.62 158.403 474.72 158.438C474.82 158.473 474.911 158.524 474.987 158.59C475.064 158.655 475.125 158.733 475.166 158.819C475.208 158.904 475.229 158.996 475.229 159.089C475.229 159.182 475.208 159.274 475.166 159.36C475.125 159.446 475.064 159.523 474.987 159.589C474.911 159.654 474.82 159.706 474.72 159.741C474.62 159.776 474.513 159.793 474.405 159.793Z" fill="white"/>
<path d="M474.405 165.419H461.332C461.224 165.42 461.117 165.402 461.017 165.367C460.917 165.332 460.826 165.281 460.75 165.215C460.673 165.15 460.612 165.072 460.571 164.986C460.529 164.9 460.508 164.809 460.508 164.716C460.508 164.623 460.529 164.531 460.571 164.445C460.612 164.359 460.673 164.282 460.75 164.216C460.826 164.151 460.917 164.099 461.017 164.064C461.117 164.029 461.224 164.012 461.332 164.012H474.405C474.513 164.012 474.62 164.029 474.72 164.064C474.82 164.099 474.911 164.151 474.987 164.216C475.064 164.282 475.125 164.359 475.166 164.445C475.208 164.531 475.229 164.623 475.229 164.716C475.229 164.809 475.208 164.9 475.166 164.986C475.125 165.072 475.064 165.15 474.987 165.215C474.911 165.281 474.82 165.332 474.72 165.367C474.62 165.402 474.513 165.42 474.405 165.419Z" fill="white"/>
<path d="M474.405 171.045H461.333C461.225 171.046 461.118 171.029 461.018 170.994C460.918 170.959 460.827 170.907 460.75 170.842C460.673 170.776 460.612 170.698 460.571 170.613C460.529 170.527 460.508 170.435 460.508 170.342C460.508 170.249 460.529 170.157 460.571 170.071C460.612 169.986 460.673 169.908 460.75 169.842C460.827 169.777 460.918 169.725 461.018 169.69C461.118 169.655 461.225 169.638 461.333 169.639H474.405C474.513 169.638 474.62 169.655 474.72 169.69C474.82 169.725 474.911 169.777 474.988 169.842C475.065 169.908 475.126 169.986 475.167 170.071C475.209 170.157 475.23 170.249 475.23 170.342C475.23 170.435 475.209 170.527 475.167 170.613C475.126 170.698 475.065 170.776 474.988 170.842C474.911 170.907 474.82 170.959 474.72 170.994C474.62 171.029 474.513 171.046 474.405 171.045Z" fill="white"/>
<path d="M203.367 210.68H187.835C186.981 210.679 186.156 210.413 185.511 209.931C184.866 209.449 184.445 208.782 184.325 208.054C183.366 201.98 183.366 195.821 184.325 189.746C184.443 189.027 184.856 188.368 185.488 187.886C186.121 187.405 186.932 187.134 187.776 187.121C192.663 185.236 197.925 185.236 203.421 187.121C203.932 187.127 204.436 187.229 204.898 187.42C205.359 187.612 205.765 187.888 206.089 188.229C206.427 188.584 206.669 188.999 206.797 189.444C206.925 189.89 206.936 190.354 206.83 190.803C205.582 196.148 205.582 201.653 206.83 206.997C206.936 207.447 206.925 207.911 206.797 208.356C206.669 208.802 206.427 209.217 206.089 209.572C205.76 209.919 205.344 210.198 204.873 210.39C204.403 210.582 203.888 210.681 203.367 210.68Z" fill="#FF5555"/>
<path d="M201.741 194.101H188.668C188.56 194.102 188.453 194.084 188.353 194.049C188.253 194.014 188.162 193.963 188.086 193.897C188.009 193.832 187.948 193.754 187.907 193.668C187.865 193.583 187.844 193.491 187.844 193.398C187.844 193.305 187.865 193.213 187.907 193.127C187.948 193.042 188.009 192.964 188.086 192.898C188.162 192.833 188.253 192.781 188.353 192.746C188.453 192.711 188.56 192.694 188.668 192.695H201.741C201.849 192.694 201.956 192.711 202.056 192.746C202.156 192.781 202.247 192.833 202.323 192.898C202.4 192.964 202.461 193.042 202.502 193.127C202.544 193.213 202.565 193.305 202.565 193.398C202.565 193.491 202.544 193.583 202.502 193.668C202.461 193.754 202.4 193.832 202.323 193.897C202.247 193.963 202.156 194.014 202.056 194.049C201.956 194.084 201.849 194.102 201.741 194.101Z" fill="white"/>
<path d="M201.741 199.728H188.668C188.56 199.728 188.453 199.711 188.353 199.676C188.253 199.641 188.162 199.589 188.086 199.524C188.009 199.458 187.948 199.381 187.907 199.295C187.865 199.209 187.844 199.117 187.844 199.024C187.844 198.931 187.865 198.839 187.907 198.754C187.948 198.668 188.009 198.59 188.086 198.525C188.162 198.459 188.253 198.408 188.353 198.373C188.453 198.338 188.56 198.32 188.668 198.321H201.741C201.849 198.32 201.956 198.338 202.056 198.373C202.156 198.408 202.247 198.459 202.323 198.525C202.4 198.59 202.461 198.668 202.502 198.754C202.544 198.839 202.565 198.931 202.565 199.024C202.565 199.117 202.544 199.209 202.502 199.295C202.461 199.381 202.4 199.458 202.323 199.524C202.247 199.589 202.156 199.641 202.056 199.676C201.956 199.711 201.849 199.728 201.741 199.728Z" fill="white"/>
<path d="M201.741 205.354H188.669C188.561 205.355 188.454 205.337 188.353 205.302C188.253 205.267 188.162 205.216 188.086 205.15C188.009 205.085 187.948 205.007 187.907 204.921C187.865 204.836 187.844 204.744 187.844 204.651C187.844 204.558 187.865 204.466 187.907 204.38C187.948 204.294 188.009 204.216 188.086 204.151C188.162 204.086 188.253 204.034 188.353 203.999C188.454 203.964 188.561 203.946 188.669 203.947H201.741C201.849 203.946 201.956 203.964 202.056 203.999C202.156 204.034 202.247 204.086 202.324 204.151C202.401 204.216 202.462 204.294 202.503 204.38C202.545 204.466 202.566 204.558 202.566 204.651C202.566 204.744 202.545 204.836 202.503 204.921C202.462 205.007 202.401 205.085 202.324 205.15C202.247 205.216 202.156 205.267 202.056 205.302C201.956 205.337 201.849 205.355 201.741 205.354Z" fill="white"/>
<path d="M555.766 285.599C556.518 285.217 557.163 284.697 557.656 284.077C558.149 283.457 558.478 282.752 558.62 282.01C558.763 281.269 558.714 280.51 558.479 279.786C558.243 279.063 557.826 278.393 557.257 277.823L567.923 262.033L556.914 262.567L548.473 277.48C547.424 278.366 546.79 279.553 546.69 280.815C546.59 282.077 547.031 283.327 547.93 284.328C548.829 285.328 550.123 286.011 551.567 286.245C553.012 286.479 554.505 286.249 555.766 285.599V285.599Z" fill="#FFB6B6"/>
<path d="M560.071 273.99L550.215 267.382L568.125 237.507L561.414 199.461C561.082 197.581 561.236 195.661 561.863 193.837C562.491 192.013 563.577 190.33 565.045 188.909C566.513 187.487 568.326 186.361 570.356 185.61C572.387 184.859 574.584 184.502 576.793 184.565C580.782 184.682 584.554 186.156 587.282 188.664C590.01 191.172 591.47 194.509 591.343 197.943L589.685 241.263L560.071 273.99Z" fill="#CCCCCC"/>
<path d="M83.6882 265.828C84.309 265.291 84.7854 264.643 85.0839 263.93C85.3824 263.217 85.4958 262.457 85.4159 261.703C85.3361 260.948 85.0651 260.218 84.6219 259.563C84.1787 258.909 83.5742 258.346 82.8509 257.914L92.4367 216.931L81.851 219.856L74.1781 259.497C73.4161 260.591 73.1467 261.888 73.4211 263.141C73.6954 264.395 74.4944 265.518 75.6667 266.298C76.8389 267.079 78.3029 267.462 79.7813 267.375C81.2597 267.288 82.6498 266.738 83.6881 265.828H83.6882Z" fill="#9E616A"/>
<path d="M97.841 179.118L91.2731 174.85C91.2731 174.85 85.4791 174.497 84.453 183.491C83.4268 192.485 81.3198 210.013 81.3198 210.013L71.2695 250.081L85.1818 252.709L95.9463 209.469L102.404 196.628L97.841 179.118Z" fill="#CCCCCC"/>
<path d="M87.0156 244.545L124.026 244.014L127.111 222.244H87.0156V244.545Z" fill="#9E616A"/>
<path d="M120.322 378.507H128.866L132.931 350.14L120.32 350.14L120.322 378.507Z" fill="#9E616A"/>
<path d="M66.7969 379.189L75.3409 379.137L79.1745 350.746L68.0624 352.94L66.7969 379.189Z" fill="#9E616A"/>
<path d="M93.5178 203.497L91.582 207.829L91.9688 212.162L129.858 223.458L127.978 204.496L123.719 200.163L93.5178 203.497Z" fill="#FFB6B6"/>
<path d="M109.775 164.506C117.249 164.506 123.307 159.291 123.307 152.858C123.307 146.424 117.249 141.209 109.775 141.209C102.301 141.209 96.2422 146.424 96.2422 152.858C96.2422 159.291 102.301 164.506 109.775 164.506Z" fill="#9E616A"/>
<path d="M118.203 374.88L131.709 374.186V379.167L144.55 386.8C145.185 387.177 145.662 387.719 145.914 388.346C146.165 388.973 146.177 389.653 145.948 390.287C145.718 390.92 145.26 391.474 144.639 391.867C144.018 392.26 143.267 392.472 142.496 392.472H126.417L123.645 387.545L122.563 392.472H116.5L118.203 374.88Z" fill="#2F2E41"/>
<path d="M63.8725 375.578L77.3729 374.803L77.4134 379.784L90.3161 387.34C90.9535 387.713 91.4355 388.252 91.692 388.877C91.9484 389.503 91.9658 390.183 91.7416 390.818C91.5173 391.452 91.0633 392.009 90.4456 392.406C89.828 392.803 89.0791 393.019 88.3084 393.024L72.2288 393.121L69.4172 388.21L68.3751 393.144L62.3125 393.18L63.8725 375.578Z" fill="#2F2E41"/>
<path d="M64.1382 357.439L70.3597 314.632L77.7618 269.5C72.3411 260.835 84.5471 233.926 84.5471 233.926L86.27 233.997L125.267 240.33L125.259 240.297C133.235 259.023 135.877 268.275 135.44 288.216L133.869 359.902H134.362C135.18 359.902 135.964 360.181 136.543 360.679C137.121 361.177 137.446 361.852 137.446 362.556C137.446 363.261 137.121 363.936 136.543 364.434C135.964 364.932 135.18 365.211 134.362 365.211H118.941C118.535 365.212 118.134 365.144 117.759 365.01C117.384 364.877 117.044 364.682 116.757 364.435C116.47 364.189 116.242 363.896 116.087 363.573C115.931 363.251 115.851 362.905 115.851 362.556C115.851 362.207 115.931 361.862 116.087 361.539C116.242 361.217 116.47 360.924 116.757 360.678C117.044 360.431 117.384 360.235 117.759 360.102C118.134 359.969 118.535 359.901 118.941 359.902H119.339L105.184 274.545L93.1829 310.385L79.6123 357.11C84.5471 356.048 83.7809 358.508 83.7809 359.902C83.7809 360.606 83.4559 361.281 82.8775 361.779C82.2991 362.277 81.5146 362.556 80.6966 362.556H65.2756C64.5584 362.557 63.8633 362.342 63.3103 361.949C62.7574 361.556 62.381 361.009 62.2463 360.403C62.1115 359.796 62.2268 359.168 62.5721 358.627C62.9175 358.086 63.4714 357.666 64.1382 357.439H64.1382Z" fill="#2F2E41"/>
<path d="M81.509 235.32L82.7427 224.7C82.8708 224.267 83.155 223.88 83.5545 223.594C83.9539 223.309 84.4482 223.139 84.9665 223.11C85.4805 218.052 87.6432 196.228 87.7724 195.276L87.7774 195.236L88.7609 177.153C88.7966 176.496 89.1121 175.873 89.6472 175.404C90.1823 174.935 90.8994 174.652 91.6616 174.609L96.8559 174.317C96.9271 174.315 96.9947 174.289 97.0442 174.245C97.0938 174.201 97.1215 174.142 97.1215 174.08C97.1215 173.587 97.2345 173.098 97.454 172.641C97.6735 172.185 97.9952 171.771 98.4009 171.422C98.8065 171.073 99.288 170.796 99.818 170.607C100.348 170.418 100.916 170.32 101.49 170.32H116.868C117.864 170.321 118.826 170.634 119.573 171.201C120.32 171.769 120.8 172.551 120.924 173.402C120.931 173.461 120.963 173.515 121.015 173.554C121.066 173.593 121.132 173.614 121.201 173.612H121.202C122.95 173.581 124.652 174.091 126.001 175.048C127.349 176.005 128.255 177.346 128.552 178.829C130.655 189.358 134.868 213.256 132.785 226.542C132.06 231.167 133.623 227.504 133.898 231.374C133.925 231.748 133.866 232.123 133.725 232.477C133.583 232.832 133.362 233.159 133.074 233.439C133.664 233.624 134.146 234.002 134.415 234.49C134.684 234.979 134.718 235.539 134.51 236.05L134.78 235.992C134.701 236.262 134.561 236.517 134.367 236.741C134.174 236.964 133.931 237.153 133.653 237.296C133.375 237.439 133.066 237.534 132.746 237.574C132.425 237.615 132.099 237.6 131.784 237.532L91.5501 242.225C90.2287 241.938 81.1759 236.457 81.509 235.32Z" fill="#CCCCCC"/>
<path d="M189.02 192.144C188.768 192.87 188.334 193.539 187.749 194.105C187.164 194.671 186.442 195.12 185.633 195.419C184.825 195.719 183.95 195.863 183.07 195.84C182.191 195.817 181.327 195.628 180.541 195.287L164.987 207.506L162.922 198.103L178.019 187.971C178.772 186.873 179.967 186.05 181.378 185.659C182.788 185.269 184.317 185.337 185.673 185.851C187.029 186.366 188.118 187.29 188.735 188.45C189.352 189.61 189.454 190.924 189.02 192.144H189.02Z" fill="#9E616A"/>
<path d="M134.883 182.804C134.883 182.804 129.459 172.254 122.609 174.351C115.759 176.448 119.296 186.685 119.296 186.685L145.032 220.067C145.032 220.067 182.153 199.569 177.639 199.424C173.125 199.279 171.775 192.213 171.775 192.213L152.156 200.651L151.492 197.647L150.428 198.563L147.682 196.703L134.883 182.804Z" fill="#CCCCCC"/>
<path d="M578.553 171.214C588.988 171.214 597.447 163.933 597.447 154.951C597.447 145.969 588.988 138.688 578.553 138.688C568.119 138.688 559.66 145.969 559.66 154.951C559.66 163.933 568.119 171.214 578.553 171.214Z" fill="#FFB6B6"/>
<path d="M639.19 178.882C637.009 181.541 633.827 183.47 630.183 184.34C628.725 184.714 627.219 184.934 625.699 184.996C625.512 183.516 625.062 182.07 624.366 180.708C624.437 182.158 624.203 183.607 623.675 184.986C621.393 184.874 619.161 184.36 617.12 183.474C615.115 182.606 613.373 181.347 612.031 179.798C610.69 178.249 609.786 176.453 609.392 174.551C608.591 170.102 610.934 165.734 611.781 161.293C612.632 156.851 611.035 151.226 605.984 150.059C602.138 149.169 602.569 149.554 599.371 151.597C602.698 155.831 590.412 171.345 585.384 169.992C582.541 169.227 580.721 166.982 580.134 166.982C576.183 172.842 583.623 182.715 576.125 184.765L576.742 184.233C581.269 179.44 571.808 169.296 576.334 164.504C577.597 163.162 578.941 161.574 578.568 159.878C578.215 158.266 575.243 157.413 574.372 158.738C575.938 155.651 573.626 151.53 569.799 150.738C566.399 150.032 566.461 150.901 563.05 151.279C562.827 150.01 562.41 148.772 561.81 147.597C561.873 148.863 561.701 150.13 561.301 151.35C560.096 151.329 558.933 150.967 557.991 150.319C555.209 148.39 555.772 144.336 558.255 142.125C560.742 139.915 564.437 139.119 567.961 138.604C568.986 132.463 588.669 131.822 591.278 137.958C592.389 133.376 599.053 130.998 604.232 132.42C609.411 133.841 613.005 138.005 614.898 142.393C616.79 146.778 617.318 151.497 618.484 156.065C619.65 160.634 621.62 165.286 625.676 168.4C629.732 171.51 636.342 172.541 640.616 169.651C641.237 171.178 641.432 172.809 641.184 174.413C640.936 176.017 640.253 177.548 639.19 178.882Z" fill="#2F2E41"/>
<path d="M816.442 215.994L813.797 227.417C813.598 228.291 813.39 229.18 813.163 230.061C810.952 229.666 808.66 229.776 806.514 230.38C808.217 232.475 809.742 234.671 811.08 236.954C809.413 241.375 806.967 245.461 802.873 248.416C800.138 250.346 796.872 251.636 793.389 252.163C789.906 252.691 786.325 252.437 782.989 251.426L783.107 250.973C778.704 243.62 781.096 234.349 786.567 227.558C789.358 224.207 792.664 221.198 796.396 218.614C800.092 215.963 804.086 213.585 808.045 211.238C808.934 210.711 809.985 210.425 811.064 210.416C812.143 210.406 813.201 210.674 814.102 211.185C815.004 211.695 815.708 212.425 816.125 213.282C816.541 214.139 816.652 215.083 816.442 215.994Z" fill="#E4E4E4"/>
<path d="M783.934 278.911C782.82 271.93 781.675 264.86 782.456 257.804C783.15 251.538 785.37 245.418 789.892 240.4C792.292 237.741 795.213 235.463 798.522 233.668C799.386 233.2 800.179 234.377 799.321 234.843C793.594 237.958 789.165 242.558 786.672 247.98C783.918 254.009 783.476 260.581 783.954 266.985C784.242 270.858 784.849 274.705 785.463 278.549C785.512 278.723 785.482 278.906 785.38 279.062C785.277 279.218 785.109 279.334 784.91 279.386C784.708 279.433 784.492 279.41 784.31 279.32C784.128 279.231 783.994 279.084 783.937 278.911L783.934 278.911Z" fill="#F2F2F2"/>
<path d="M846.922 393.76L1.07938 394C0.793857 393.999 0.520322 393.901 0.318722 393.727C0.117122 393.553 0.00390625 393.317 0.00390625 393.072C0.00390625 392.826 0.117122 392.59 0.318722 392.416C0.520322 392.242 0.793857 392.144 1.07938 392.143L846.922 391.904C847.208 391.904 847.481 392.002 847.683 392.176C847.885 392.35 847.998 392.586 847.998 392.832C847.998 393.078 847.885 393.313 847.683 393.487C847.481 393.662 847.208 393.76 846.922 393.76Z" fill="#CACACA"/>
<path d="M93.8477 145.725C91.7722 146.583 89.449 145.293 87.6571 144.015L88.2981 144.491C85.1312 147.143 83.6506 150.959 82.9271 154.715C82.2029 158.468 82.1222 162.305 81.2104 166.031C80.2978 169.752 78.4049 173.492 74.8692 175.771C70.1325 178.824 63.5996 178.628 57.7867 177.692C57.7092 177.679 57.6371 177.668 57.5596 177.655C59.1237 173.768 59.7595 169.649 59.4289 165.545C57.8707 169.657 55.2182 173.4 51.6826 176.474C47.8286 175.561 44.0667 174.381 40.4339 172.946C38.0833 172.014 35.5523 170.741 34.9 168.585C34.2459 166.445 35.7647 164.2 37.7955 162.849C39.8263 161.498 42.3187 160.793 44.6323 159.83C46.942 158.872 49.2277 157.506 50.1525 155.444C52.2855 150.7 46.2091 145.256 48.5772 140.593C49.745 138.3 52.6053 137.053 55.2938 136.091C59.398 134.627 63.6125 133.403 67.9085 132.428C71.6797 131.572 75.6174 130.907 79.4592 131.468C83.301 132.029 87.0648 134.041 88.4475 137.181C90.7546 137.852 93.2039 138.609 94.6845 140.28C96.1645 141.948 96.0451 144.819 93.8477 145.725Z" fill="#2F2E41"/>
<path d="M112.312 140.228C106.375 136.193 101.574 136.882 97.8707 139.389C97.2481 138.793 94.5987 140.433 93.7016 140.197L90.457 145.44C88.7873 147.976 88.1023 150.565 88.3722 152.022C85.301 159.436 92.584 164.442 101.197 167.086C104.634 168.148 108.383 168.195 111.854 167.219L111.96 165.955L112.612 166.991C112.612 166.991 120.486 180.946 122.347 181.573C121.218 179.052 118.24 167.071 117.409 164.573C116.269 161.175 117.048 155.777 117.718 152.467C118.135 150.426 118.157 148.34 117.782 146.294L117.766 146.204L119.608 149.405L123.741 147.168C122.162 143.207 122.13 138.469 112.312 140.228Z" fill="#2F2E41"/>
</g>
<defs>
<clipPath id="clip0_1611_5206">
<rect width="848" height="394" fill="white"/>
</clipPath>
</defs>
</svg>
