<svg width="51" height="46" viewBox="0 0 51 46" fill="none" xmlns="http://www.w3.org/2000/svg">
<path d="M33.4627 2.2743L27.0176 7.03066C26.7023 7.26336 26.6052 7.68615 26.7541 8.0727C27.1556 9.11837 26.8606 10.3289 25.9651 10.9898C25.0696 11.6507 23.8365 11.59 22.9451 10.8837C22.7929 10.7572 22.6054 10.6832 22.4115 10.6732C22.2176 10.6632 22.0279 10.7177 21.8716 10.8283L3.67148 24.2597C2.14534 25.3859 1.87635 27.6085 3.07095 29.2272L13.2101 42.9662C14.4047 44.585 16.6078 44.9832 18.1339 43.8569L36.3341 30.4256C36.6494 30.1929 36.7465 29.7701 36.5976 29.3835C36.1961 28.3379 36.4911 27.1273 37.3866 26.4664C38.2821 25.8056 39.5152 25.8662 40.4066 26.5725C40.7321 26.8288 41.1647 26.8606 41.48 26.6279L47.9251 21.8716C49.4513 20.7453 49.7203 18.5227 48.5257 16.904L38.3866 3.165C37.192 1.54627 34.9889 1.14804 33.4627 2.2743ZM35.6694 24.1396C34.5721 24.9494 32.8593 24.714 32.0002 23.5499C31.1421 22.3871 31.4521 20.7216 32.5494 19.9118C33.6467 19.102 35.2479 19.3552 36.107 20.5192C36.9651 21.682 36.7667 23.3298 35.6694 24.1396ZM30.812 17.5575C29.7147 18.3673 28.0324 18.1416 27.1734 16.9776C26.3153 15.8148 26.5956 14.1408 27.6929 13.331C28.7902 12.5212 30.4384 12.772 31.2965 13.9348C32.1555 15.0989 31.9093 16.7477 30.812 17.5575Z" fill="#FF8B71"/>
<path d="M15.9666 25.2762L10.6289 29.2153C10.0121 29.6705 9.09836 29.475 8.5835 28.7774C8.06864 28.0797 8.15129 27.1489 8.76805 26.6938L14.1058 22.7547C14.7225 22.2995 15.6363 22.4949 16.1511 23.1926C16.6766 23.9046 16.5833 24.821 15.9666 25.2762ZM15.0713 36.027L27.4847 26.8661C27.8795 26.5748 28.0063 26.0312 27.7266 25.6786C27.4596 25.3167 26.9166 25.2673 26.508 25.5689L14.1071 34.7205C13.6998 35.0211 13.5856 35.5554 13.8526 35.9173C14.1197 36.2792 14.6627 36.3285 15.0713 36.027ZM16.9996 38.6399L29.4131 29.4791C29.8078 29.1877 29.926 28.6324 29.655 28.2915C29.3879 27.9296 28.8449 27.8803 28.4363 28.1819L16.0355 37.3335C15.6281 37.6341 15.5139 38.1684 15.781 38.5303C16.048 38.8922 16.591 38.9415 16.9996 38.6399ZM37.3027 15.5846L40.4836 13.2372C41.0007 12.8555 41.7338 12.9805 42.1282 13.5148L44.5598 16.8098C44.9551 17.3454 44.8561 18.0824 44.3402 18.4631L41.1606 20.8096C41.0383 20.9004 40.8987 20.9652 40.7498 21.0004C40.6008 21.0355 40.4454 21.0404 40.2926 21.0146C40.1398 20.9888 39.9925 20.9328 39.8592 20.85C39.7259 20.7672 39.6093 20.6591 39.516 20.532L37.0853 17.2384C36.69 16.7027 36.789 15.9657 37.3049 15.585L37.3027 15.5846Z" fill="#FF5555"/>
</svg>
